<svg width="800" height="600" xmlns="http://www.w3.org/2000/svg">
 <!-- Created with Method Draw - http://github.com/duopixel/Method-Draw/ -->

 <g>
  <title>background</title>
  <rect fill="#fff" id="canvas_background" height="602" width="802" y="-1" x="-1"/>
 </g>
 <g>
  <title>Layer 1</title>
  <g id="svg_52">
   <g id="svg_5">
    <g id="svg_6">
     <path id="svg_7" d="m10685.8788,7774.74894l-30,0c-0.6,0 -1,0.4 -1,1l0,38c0,0.6 0.4,1 1,1l30,0c0.6,0 1,-0.4 1,-1l0,-38c0,-0.6 -0.4,-1 -1,-1zm-1,2l0,6l-28,0c0,-0.6 0,-1.6 0,-2l12,0l0,-2l-12,0c0,-0.2 0,-2 0,-2l28,0zm-28,36c0,0 0,-18.3 0,-28l28,0l0,28l-28,0z"/>
     <rect id="svg_8" height="2" width="3" y="50853.52263" x="69679.31292"/>
     <rect id="svg_9" height="2" width="3" y="50853.52263" x="69684.31292"/>
     <rect id="svg_10" height="2" width="3" y="215503.53275" x="295320.82164"/>
     <rect id="svg_11" height="2" width="3" y="1320948.60419" x="1810195.08342"/>
     <rect id="svg_12" height="2" width="4" y="1320953.60419" x="1810178.08342"/>
     <rect id="svg_13" height="2" width="4" y="1320953.60419" x="1810184.08342"/>
     <rect id="svg_14" height="2" width="4" y="1320953.60419" x="1810190.08342"/>
     <rect id="svg_15" height="2" width="4" y="1320953.60419" x="1810196.08342"/>
     <rect id="svg_16" height="2" width="4" y="1320957.60419" x="1810178.08342"/>
     <rect id="svg_17" height="2" width="4" y="1320957.60419" x="1810184.08342"/>
     <rect id="svg_18" height="2" width="4" y="1320957.60419" x="1810190.08342"/>
     <rect id="svg_19" height="2" width="4" y="1320957.60419" x="1810196.08342"/>
     <rect id="svg_20" height="2" width="4" y="1320961.60419" x="1810178.08342"/>
     <rect id="svg_21" height="2" width="4" y="246520.30014" x="337801.46837"/>
     <rect id="svg_22" height="2" width="4" y="246520.30014" x="337807.46837"/>
     <rect id="svg_23" height="2" width="4" y="1491.99072" x="2033.91333"/>
     <rect id="svg_24" height="2" width="4" y="1495.99072" x="2015.91333"/>
     <rect id="svg_25" height="2" width="4" y="1495.99072" x="2021.91333"/>
     <rect id="svg_26" height="2" width="4" y="1495.99072" x="2027.91333"/>
     <rect id="svg_27" height="2" width="4" y="1495.99072" x="2033.91333"/>
     <rect id="svg_28" height="2" width="4" y="1499.99072" x="2015.91333"/>
     <rect id="svg_29" height="2" width="4" y="1499.99072" x="2021.91333"/>
     <rect id="svg_30" height="2" width="4" y="1499.99072" x="2027.91333"/>
     <rect id="svg_31" height="2" width="4" y="1499.99072" x="2033.91333"/>
     <path id="svg_32" d="m1984.91333,1460.99072l11,0c0.6,0 1,-0.4 1,-1l0,-11l34,0l0,14l2,0l0,-15c0,-0.6 -0.4,-1 -1,-1l-36,0l0,0c-0.1,0 -0.2,0 -0.3,0.1l-0.1,0c-0.1,0.1 -0.2,0.1 -0.3,0.2l-12,12c-0.1,0.1 -0.1,0.2 -0.2,0.3l0,0.1c0,0.1 -0.1,0.2 -0.1,0.3l0,0l0,11l2,0c0,0 0,-8.9 0,-10zm10,-2l-8.6,0l4.3,-4.3l4.3,-4.3l0,8.6l0,0z"/>
     <path id="svg_33" d="m2007.91333,1489.99072l-11,0l0,-4l0,-5l0,-5c0,-0.6 -0.4,-1 -1,-1l-12,0c-0.6,0 -1,0.4 -1,1l0,5l0,5l0,5l0,5l0,5l0,5c0,0.6 0.4,1 1,1l12,0l12,0c0.6,0 1,-0.4 1,-1l0,-5l0,-5l0,-5c0,-0.6 -0.4,-1 -1,-1zm-23,2l10,0l0,3l-10,0l0,-3zm10,-2l-10,0l0,-3l10,0l0,3zm0,-5l-10,0l0,-3l10,0l0,3zm-10,12l10,0l0,3l-10,0l0,-3zm12,0l10,0l0,3l-10,0l0,-3zm10,-2l-10,0l0,-3l10,0l0,3zm-22,-18l10,0l0,3l-10,0l0,-3zm0,25l10,0l0,3l-10,0l0,-3zm22,3l-10,0l0,-3l10,0l0,3z"/>
     <rect id="svg_34" height="2" width="7" y="1451.99072" x="2020.91333"/>
     <rect id="svg_35" height="2" width="18" y="1456.99072" x="2009.91333"/>
     <rect id="svg_36" height="2" width="3" y="1470.99072" x="2026.91333"/>
    </g>
   </g>
   <g id="svg_37"/>
   <g id="svg_38"/>
   <g id="svg_39"/>
   <g id="svg_40"/>
   <g id="svg_41"/>
   <g id="svg_42"/>
   <g id="svg_43"/>
   <g id="svg_44"/>
   <g id="svg_45"/>
   <g id="svg_46"/>
   <g id="svg_47"/>
   <g id="svg_48"/>
   <g id="svg_49"/>
   <g id="svg_50"/>
   <g id="svg_51"/>
  </g>
  <g id="svg_104">
   <g transform="matrix(11.111110581292053,0,0,11.111110581292053,0,0) " id="svg_57">
    <g id="svg_58">
     <path id="svg_59" d="m65,17l-30,0c-0.6,0 -1,0.4 -1,1l0,38c0,0.6 0.4,1 1,1l30,0c0.6,0 1,-0.4 1,-1l0,-38c0,-0.6 -0.4,-1 -1,-1zm-1,2l0,6l-28,0c0,-0.6 0,-1.6 0,-2l12,0l0,-2l-12,0c0,-0.2 0,-2 0,-2l28,0zm-28,36c0,0 0,-18.3 0,-28l28,0l0,28l-28,0z"/>
     <rect id="svg_60" height="2" width="3" y="29" x="41"/>
     <rect id="svg_61" height="2" width="3" y="29" x="46"/>
     <rect id="svg_62" height="2" width="3" y="29" x="51"/>
     <rect id="svg_63" height="2" width="3" y="29" x="56"/>
     <rect id="svg_64" height="2" width="4" y="34" x="39"/>
     <rect id="svg_65" height="2" width="4" y="34" x="45"/>
     <rect id="svg_66" height="2" width="4" y="34" x="51"/>
     <rect id="svg_67" height="2" width="4" y="34" x="57"/>
     <rect id="svg_68" height="2" width="4" y="38" x="39"/>
     <rect id="svg_69" height="2" width="4" y="38" x="45"/>
     <rect id="svg_70" height="2" width="4" y="38" x="51"/>
     <rect id="svg_71" height="2" width="4" y="38" x="57"/>
     <rect id="svg_72" height="2" width="4" y="42" x="39"/>
     <rect id="svg_73" height="2" width="4" y="42" x="45"/>
     <rect id="svg_74" height="2" width="4" y="42" x="51"/>
     <rect id="svg_75" height="2" width="4" y="42" x="57"/>
     <rect id="svg_76" height="2" width="4" y="46" x="39"/>
     <rect id="svg_77" height="2" width="4" y="46" x="45"/>
     <rect id="svg_78" height="2" width="4" y="46" x="51"/>
     <rect id="svg_79" height="2" width="4" y="46" x="57"/>
     <rect id="svg_80" height="2" width="4" y="50" x="39"/>
     <rect id="svg_81" height="2" width="4" y="50" x="45"/>
     <rect id="svg_82" height="2" width="4" y="50" x="51"/>
     <rect id="svg_83" height="2" width="4" y="50" x="57"/>
     <path id="svg_84" d="m8,11l11,0c0.6,0 1,-0.4 1,-1l0,-11l34,0l0,14l2,0l0,-15c0,-0.6 -0.4,-1 -1,-1l-36,0l0,0c-0.1,0 -0.2,0 -0.3,0.1l-0.1,0c-0.1,0.1 -0.2,0.1 -0.3,0.2l-12,12c-0.1,0.1 -0.1,0.2 -0.2,0.3l0,0.1c0,0.1 -0.1,0.2 -0.1,0.3l0,0l0,11l2,0c0,0 0,-8.9 0,-10zm10,-2l-8.6,0l4.3,-4.3l4.3,-4.3l0,8.6l0,0z"/>
     <path id="svg_85" d="m31,40l-11,0l0,-4l0,-5l0,-5c0,-0.6 -0.4,-1 -1,-1l-12,0c-0.6,0 -1,0.4 -1,1l0,5l0,5l0,5l0,5l0,5l0,5c0,0.6 0.4,1 1,1l12,0l12,0c0.6,0 1,-0.4 1,-1l0,-5l0,-5l0,-5c0,-0.6 -0.4,-1 -1,-1zm-23,2l10,0l0,3l-10,0l0,-3zm10,-2l-10,0l0,-3l10,0l0,3zm0,-5l-10,0l0,-3l10,0l0,3zm-10,12l10,0l0,3l-10,0l0,-3zm12,0l10,0l0,3l-10,0l0,-3zm10,-2l-10,0l0,-3l10,0l0,3zm-22,-18l10,0l0,3l-10,0l0,-3zm0,25l10,0l0,3l-10,0l0,-3zm22,3l-10,0l0,-3l10,0l0,3z"/>
     <rect id="svg_86" height="2" width="7" y="2" x="44"/>
     <rect id="svg_87" height="2" width="18" y="7" x="33"/>
     <rect id="svg_88" height="2" width="3" y="21" x="50"/>
    </g>
   </g>
   <g transform="matrix(11.111110581292053,0,0,11.111110581292053,0,0) " id="svg_89"/>
   <g transform="matrix(11.111110581292053,0,0,11.111110581292053,0,0) " id="svg_90"/>
   <g transform="matrix(11.111110581292053,0,0,11.111110581292053,0,0) " id="svg_91"/>
   <g transform="matrix(11.111110581292053,0,0,11.111110581292053,0,0) " id="svg_92"/>
   <g transform="matrix(11.111110581292053,0,0,11.111110581292053,0,0) " id="svg_93"/>
   <g transform="matrix(11.111110581292053,0,0,11.111110581292053,0,0) " id="svg_94"/>
   <g transform="matrix(11.111110581292053,0,0,11.111110581292053,0,0) " id="svg_95"/>
   <g transform="matrix(11.111110581292053,0,0,11.111110581292053,0,0) " id="svg_96"/>
   <g transform="matrix(11.111110581292053,0,0,11.111110581292053,0,0) " id="svg_97"/>
   <g transform="matrix(11.111110581292053,0,0,11.111110581292053,0,0) " id="svg_98"/>
   <g transform="matrix(11.111110581292053,0,0,11.111110581292053,0,0) " id="svg_99"/>
   <g transform="matrix(11.111110581292053,0,0,11.111110581292053,0,0) " id="svg_100"/>
   <g transform="matrix(11.111110581292053,0,0,11.111110581292053,0,0) " id="svg_101"/>
   <g transform="matrix(11.111110581292053,0,0,11.111110581292053,0,0) " id="svg_102"/>
   <g transform="matrix(11.111110581292053,0,0,11.111110581292053,0,0) " id="svg_103"/>
  </g>
 </g>
</svg>