<svg width="800" height="600" xmlns="http://www.w3.org/2000/svg">
 <!-- Created with Method Draw - http://github.com/duopixel/Method-Draw/ -->

 <g>
  <title>background</title>
  <rect fill="#fff" id="canvas_background" height="602" width="802" y="-1" x="-1"/>
  <g display="none" overflow="visible" y="0" x="0" height="100%" width="100%" id="canvasGrid">
   <rect fill="url(#gridpattern)" stroke-width="0" y="0" x="0" height="100%" width="100%"/>
  </g>
 </g>
 <g>
  <title>Layer 1</title>
  <g id="svg_26">
   <g transform="matrix(0.1631227377011948,0,0,0.1631227377011948,0,0) " id="svg_5">
    <g id="svg_7">
     <g id="svg_8">
      <path id="svg_9" d="m2411.64239,1856.7015l30,0c0,-25.127 -16.943,-46.356 -40,-52.904l0,-17.096l-30,0l0,17.096c-23.057,6.547 -40,27.777 -40,52.904c0,25.216 13.713,43.232 38.613,50.73l1.387,0.418l0,48.838c-6.068,-4.566 -10,-11.825 -10,-19.986l-30,0c0,25.127 16.943,46.356 40,52.904l0,17.096l30,0l0,-17.096c23.057,-6.547 40,-27.777 40,-52.904c0,-25.216 -13.713,-43.232 -38.613,-50.731l-1.387,-0.418l0,-48.838c6.069,4.566 10,11.826 10,19.987zm-40,19.018c-7.001,-3.911 -10,-9.803 -10,-19.018c0,-8.161 3.932,-15.421 10,-19.986l0,39.004zm40,60.982c0,8.161 -3.932,15.421 -10,19.986l0,-39.005c7.001,3.911 10,9.803 10,19.019z"/>
      <path id="svg_10" d="m2507.64239,1636.7015l0,105.236c-13.117,-11.896 -27.945,-21.775 -44.101,-29.332l22.018,-121.095l-98.918,24.729l-98.917,-24.729l22.018,121.095c-28.558,13.358 -52.971,33.971 -71.111,60.162c-20.928,30.216 -31.99,65.81 -31.99,102.934l0,211l491,0l0,-450l-189.999,0zm30,30l130,0l0,40l-130,0l0,-40zm-151.002,-19.539l61.084,-15.271l-13.602,74.809l-94.963,0l-13.602,-74.809l61.083,15.271zm-149.998,409.539l0,-181c0,-61.809 36.395,-116.063 92.932,-139l114.135,0c56.537,22.938 92.932,77.191 92.932,139l0,181l-299.999,0zm301,-320l130,0l0,40l-130,0l0,-40zm130,320l-101,0l0,-40l101,0l0,40zm0,-70l-101,0l0,-40l101,0l0,40zm0,-70l-101,0l0,-40l101,0l0,40zm0.001,-70l-103.293,0c-2.2,-13.777 -5.971,-27.181 -11.243,-40l114.536,0l0,40z"/>
     </g>
    </g>
   </g>
   <g transform="matrix(0.1631227377011948,0,0,0.1631227377011948,0,0) " id="svg_11"/>
   <g transform="matrix(0.1631227377011948,0,0,0.1631227377011948,0,0) " id="svg_12"/>
   <g transform="matrix(0.1631227377011948,0,0,0.1631227377011948,0,0) " id="svg_13"/>
   <g transform="matrix(0.1631227377011948,0,0,0.1631227377011948,0,0) " id="svg_14"/>
   <g transform="matrix(0.1631227377011948,0,0,0.1631227377011948,0,0) " id="svg_15"/>
   <g transform="matrix(0.1631227377011948,0,0,0.1631227377011948,0,0) " id="svg_16"/>
   <g transform="matrix(0.1631227377011948,0,0,0.1631227377011948,0,0) " id="svg_17"/>
   <g transform="matrix(0.1631227377011948,0,0,0.1631227377011948,0,0) " id="svg_18"/>
   <g transform="matrix(0.1631227377011948,0,0,0.1631227377011948,0,0) " id="svg_19"/>
   <g transform="matrix(0.1631227377011948,0,0,0.1631227377011948,0,0) " id="svg_20"/>
   <g transform="matrix(0.1631227377011948,0,0,0.1631227377011948,0,0) " id="svg_21"/>
   <g transform="matrix(0.1631227377011948,0,0,0.1631227377011948,0,0) " id="svg_22"/>
   <g transform="matrix(0.1631227377011948,0,0,0.1631227377011948,0,0) " id="svg_23"/>
   <g transform="matrix(0.1631227377011948,0,0,0.1631227377011948,0,0) " id="svg_24"/>
   <g transform="matrix(0.1631227377011948,0,0,0.1631227377011948,0,0) " id="svg_25"/>
  </g>
 </g>
</svg>