<svg xmlns="http://www.w3.org/2000/svg" width="1206" height="607" viewBox="0 0 1206 607">
  <g id="LandingPage_Background" transform="translate(-715 -474)">
    <g id="Rectangle_23" data-name="Rectangle 23" transform="translate(1237 1045)" fill="#ebebeb" stroke="#ebebeb" stroke-width="1">
      <rect width="190" height="35" stroke="none"/>
      <rect x="0.5" y="0.5" width="189" height="34" fill="none"/>
    </g>
    <g id="Rectangle_28" data-name="Rectangle 28" transform="translate(1048 1065)" fill="#ebebeb" stroke="#ebebeb" stroke-width="1">
      <rect width="190" height="15" stroke="none"/>
      <rect x="0.5" y="0.5" width="189" height="14" fill="none"/>
    </g>
    <g id="Rectangle_15" data-name="Rectangle 15" transform="translate(1764 1045)" fill="#ebebeb" stroke="#ebebeb" stroke-width="1">
      <rect width="116" height="35" stroke="none"/>
      <rect x="0.5" y="0.5" width="115" height="34" fill="none"/>
    </g>
    <g id="Rectangle_18" data-name="Rectangle 18" transform="translate(1598 986)" fill="#ebebeb" stroke="#ebebeb" stroke-width="1">
      <rect width="116" height="94" stroke="none"/>
      <rect x="0.5" y="0.5" width="115" height="93" fill="none"/>
    </g>
    <g id="Group_21" data-name="Group 21">
      <g id="Group_8" data-name="Group 8" transform="translate(16 49.954)">
        <line id="Line_6" data-name="Line 6" y2="79.513" transform="translate(1226.5 524.5)" fill="none" stroke="#d2d2d2" stroke-width="1"/>
        <line id="Line_7" data-name="Line 7" x2="87.297" transform="translate(1226.5 604.013)" fill="none" stroke="#d2d2d2" stroke-width="1"/>
        <path id="Path_3" data-name="Path 3" d="M20367.277,903.118l4.432-4.665,3.965,4.665" transform="translate(-19145 -374)" fill="none" stroke="#d2d2d2" stroke-width="1"/>
        <path id="Path_4" data-name="Path 4" d="M20488.33,1028.137l4.666,3.965-4.666,4.432" transform="translate(-19179.703 -428.487)" fill="none" stroke="#d2d2d2" stroke-width="1"/>
        <g id="Rectangle_7" data-name="Rectangle 7" transform="translate(1226 570.513)" fill="#ebebeb" stroke="#d2d2d2" stroke-width="1">
          <rect width="18" height="34" stroke="none"/>
          <rect x="0.5" y="0.5" width="17" height="33" fill="none"/>
        </g>
        <g id="Rectangle_9" data-name="Rectangle 9" transform="translate(1250.62 552.513)" fill="#ebebeb" stroke="#d2d2d2" stroke-width="1">
          <rect width="18" height="52" stroke="none"/>
          <rect x="0.5" y="0.5" width="17" height="51" fill="none"/>
        </g>
        <g id="Rectangle_11" data-name="Rectangle 11" transform="translate(1276.436 534.275)" fill="#ebebeb" stroke="#d2d2d2" stroke-width="1">
          <rect width="18" height="70.238" stroke="none"/>
          <rect x="0.5" y="0.5" width="17" height="69.238" fill="none"/>
        </g>
      </g>
      <g id="Group_19" data-name="Group 19" transform="translate(16 49.954)">
        <line id="Line_6-2" data-name="Line 6" y2="79.513" transform="translate(1226.5 524.5)" fill="none" stroke="#d2d2d2" stroke-width="1"/>
        <line id="Line_7-2" data-name="Line 7" x2="87.297" transform="translate(1226.5 604.013)" fill="none" stroke="#d2d2d2" stroke-width="1"/>
        <path id="Path_3-2" data-name="Path 3" d="M20367.277,903.118l4.432-4.665,3.965,4.665" transform="translate(-19145 -374)" fill="none" stroke="#d2d2d2" stroke-width="1"/>
        <path id="Path_4-2" data-name="Path 4" d="M20488.33,1028.137l4.666,3.965-4.666,4.432" transform="translate(-19179.703 -428.487)" fill="none" stroke="#d2d2d2" stroke-width="1"/>
        <g id="Rectangle_7-2" data-name="Rectangle 7" transform="translate(1226 570.513)" fill="#ebebeb" stroke="#d2d2d2" stroke-width="1">
          <rect width="18" height="34" stroke="none"/>
          <rect x="0.5" y="0.5" width="17" height="33" fill="none"/>
        </g>
        <g id="Rectangle_9-2" data-name="Rectangle 9" transform="translate(1250.62 552.513)" fill="#ebebeb" stroke="#d2d2d2" stroke-width="1">
          <rect width="18" height="52" stroke="none"/>
          <rect x="0.5" y="0.5" width="17" height="51" fill="none"/>
        </g>
        <g id="Rectangle_11-2" data-name="Rectangle 11" transform="translate(1276.436 534.275)" fill="#ebebeb" stroke="#d2d2d2" stroke-width="1">
          <rect width="18" height="70.238" stroke="none"/>
          <rect x="0.5" y="0.5" width="17" height="69.238" fill="none"/>
        </g>
      </g>
      <g id="Group_16" data-name="Group 16" transform="translate(16 49.954)">
        <line id="Line_6-3" data-name="Line 6" y2="79.513" transform="translate(1226.5 524.5)" fill="none" stroke="#d2d2d2" stroke-width="1"/>
        <line id="Line_7-3" data-name="Line 7" x2="87.297" transform="translate(1226.5 604.013)" fill="none" stroke="#d2d2d2" stroke-width="1"/>
        <path id="Path_3-3" data-name="Path 3" d="M20367.277,903.118l4.432-4.665,3.965,4.665" transform="translate(-19145 -374)" fill="none" stroke="#d2d2d2" stroke-width="1"/>
        <path id="Path_4-3" data-name="Path 4" d="M20488.33,1028.137l4.666,3.965-4.666,4.432" transform="translate(-19179.703 -428.487)" fill="none" stroke="#d2d2d2" stroke-width="1"/>
        <g id="Rectangle_7-3" data-name="Rectangle 7" transform="translate(1226 570.513)" fill="#ebebeb" stroke="#d2d2d2" stroke-width="1">
          <rect width="18" height="34" stroke="none"/>
          <rect x="0.5" y="0.5" width="17" height="33" fill="none"/>
        </g>
        <g id="Rectangle_9-3" data-name="Rectangle 9" transform="translate(1250.62 552.513)" fill="#ebebeb" stroke="#d2d2d2" stroke-width="1">
          <rect width="18" height="52" stroke="none"/>
          <rect x="0.5" y="0.5" width="17" height="51" fill="none"/>
        </g>
        <g id="Rectangle_11-3" data-name="Rectangle 11" transform="translate(1276.436 534.275)" fill="#ebebeb" stroke="#d2d2d2" stroke-width="1">
          <rect width="18" height="70.238" stroke="none"/>
          <rect x="0.5" y="0.5" width="17" height="69.238" fill="none"/>
        </g>
      </g>
      <g id="Group_20" data-name="Group 20" transform="translate(16 49.954)">
        <line id="Line_6-4" data-name="Line 6" y2="79.513" transform="translate(1226.5 524.5)" fill="none" stroke="#d2d2d2" stroke-width="1"/>
        <line id="Line_7-4" data-name="Line 7" x2="87.297" transform="translate(1226.5 604.013)" fill="none" stroke="#d2d2d2" stroke-width="1"/>
        <path id="Path_3-4" data-name="Path 3" d="M20367.277,903.118l4.432-4.665,3.965,4.665" transform="translate(-19145 -374)" fill="none" stroke="#d2d2d2" stroke-width="1"/>
        <path id="Path_4-4" data-name="Path 4" d="M20488.33,1028.137l4.666,3.965-4.666,4.432" transform="translate(-19179.703 -428.487)" fill="none" stroke="#d2d2d2" stroke-width="1"/>
        <g id="Rectangle_7-4" data-name="Rectangle 7" transform="translate(1226 570.513)" fill="#ebebeb" stroke="#d2d2d2" stroke-width="1">
          <rect width="18" height="34" stroke="none"/>
          <rect x="0.5" y="0.5" width="17" height="33" fill="none"/>
        </g>
        <g id="Rectangle_9-4" data-name="Rectangle 9" transform="translate(1250.62 552.513)" fill="#ebebeb" stroke="#d2d2d2" stroke-width="1">
          <rect width="18" height="52" stroke="none"/>
          <rect x="0.5" y="0.5" width="17" height="51" fill="none"/>
        </g>
        <g id="Rectangle_11-4" data-name="Rectangle 11" transform="translate(1276.436 534.275)" fill="#ebebeb" stroke="#d2d2d2" stroke-width="1">
          <rect width="18" height="70.238" stroke="none"/>
          <rect x="0.5" y="0.5" width="17" height="69.238" fill="none"/>
        </g>
      </g>
    </g>
    <g id="Group_25" data-name="Group 25" transform="translate(476 -93)">
      <g id="Group_8-2" data-name="Group 8" transform="translate(16 49.954)">
        <line id="Line_6-5" data-name="Line 6" y2="79.513" transform="translate(1226.5 524.5)" fill="none" stroke="#d2d2d2" stroke-width="1"/>
        <line id="Line_7-5" data-name="Line 7" x2="87.297" transform="translate(1226.5 604.013)" fill="none" stroke="#d2d2d2" stroke-width="1"/>
        <path id="Path_3-5" data-name="Path 3" d="M20367.277,903.118l4.432-4.665,3.965,4.665" transform="translate(-19145 -374)" fill="none" stroke="#d2d2d2" stroke-width="1"/>
        <path id="Path_4-5" data-name="Path 4" d="M20488.33,1028.137l4.666,3.965-4.666,4.432" transform="translate(-19179.703 -428.487)" fill="none" stroke="#d2d2d2" stroke-width="1"/>
        <g id="Rectangle_7-5" data-name="Rectangle 7" transform="translate(1226 570.513)" fill="#ebebeb" stroke="#d2d2d2" stroke-width="1">
          <rect width="18" height="34" stroke="none"/>
          <rect x="0.5" y="0.5" width="17" height="33" fill="none"/>
        </g>
        <g id="Rectangle_9-5" data-name="Rectangle 9" transform="translate(1250.62 552.513)" fill="#ebebeb" stroke="#d2d2d2" stroke-width="1">
          <rect width="18" height="52" stroke="none"/>
          <rect x="0.5" y="0.5" width="17" height="51" fill="none"/>
        </g>
        <g id="Rectangle_11-5" data-name="Rectangle 11" transform="translate(1276.436 534.275)" fill="#ebebeb" stroke="#d2d2d2" stroke-width="1">
          <rect width="18" height="70.238" stroke="none"/>
          <rect x="0.5" y="0.5" width="17" height="69.238" fill="none"/>
        </g>
      </g>
      <g id="Group_19-2" data-name="Group 19" transform="translate(16 49.954)">
        <line id="Line_6-6" data-name="Line 6" y2="79.513" transform="translate(1226.5 524.5)" fill="none" stroke="#d2d2d2" stroke-width="1"/>
        <line id="Line_7-6" data-name="Line 7" x2="87.297" transform="translate(1226.5 604.013)" fill="none" stroke="#d2d2d2" stroke-width="1"/>
        <path id="Path_3-6" data-name="Path 3" d="M20367.277,903.118l4.432-4.665,3.965,4.665" transform="translate(-19145 -374)" fill="none" stroke="#d2d2d2" stroke-width="1"/>
        <path id="Path_4-6" data-name="Path 4" d="M20488.33,1028.137l4.666,3.965-4.666,4.432" transform="translate(-19179.703 -428.487)" fill="none" stroke="#d2d2d2" stroke-width="1"/>
        <g id="Rectangle_7-6" data-name="Rectangle 7" transform="translate(1226 570.513)" fill="#ebebeb" stroke="#d2d2d2" stroke-width="1">
          <rect width="18" height="34" stroke="none"/>
          <rect x="0.5" y="0.5" width="17" height="33" fill="none"/>
        </g>
        <g id="Rectangle_9-6" data-name="Rectangle 9" transform="translate(1250.62 552.513)" fill="#ebebeb" stroke="#d2d2d2" stroke-width="1">
          <rect width="18" height="52" stroke="none"/>
          <rect x="0.5" y="0.5" width="17" height="51" fill="none"/>
        </g>
        <g id="Rectangle_11-6" data-name="Rectangle 11" transform="translate(1276.436 534.275)" fill="#ebebeb" stroke="#d2d2d2" stroke-width="1">
          <rect width="18" height="70.238" stroke="none"/>
          <rect x="0.5" y="0.5" width="17" height="69.238" fill="none"/>
        </g>
      </g>
      <g id="Group_16-2" data-name="Group 16" transform="translate(16 49.954)">
        <line id="Line_6-7" data-name="Line 6" y2="79.513" transform="translate(1226.5 524.5)" fill="none" stroke="#d2d2d2" stroke-width="1"/>
        <line id="Line_7-7" data-name="Line 7" x2="87.297" transform="translate(1226.5 604.013)" fill="none" stroke="#d2d2d2" stroke-width="1"/>
        <path id="Path_3-7" data-name="Path 3" d="M20367.277,903.118l4.432-4.665,3.965,4.665" transform="translate(-19145 -374)" fill="none" stroke="#d2d2d2" stroke-width="1"/>
        <path id="Path_4-7" data-name="Path 4" d="M20488.33,1028.137l4.666,3.965-4.666,4.432" transform="translate(-19179.703 -428.487)" fill="none" stroke="#d2d2d2" stroke-width="1"/>
        <g id="Rectangle_7-7" data-name="Rectangle 7" transform="translate(1226 570.513)" fill="#ebebeb" stroke="#d2d2d2" stroke-width="1">
          <rect width="18" height="34" stroke="none"/>
          <rect x="0.5" y="0.5" width="17" height="33" fill="none"/>
        </g>
        <g id="Rectangle_9-7" data-name="Rectangle 9" transform="translate(1250.62 552.513)" fill="#ebebeb" stroke="#d2d2d2" stroke-width="1">
          <rect width="18" height="52" stroke="none"/>
          <rect x="0.5" y="0.5" width="17" height="51" fill="none"/>
        </g>
        <g id="Rectangle_11-7" data-name="Rectangle 11" transform="translate(1276.436 534.275)" fill="#ebebeb" stroke="#d2d2d2" stroke-width="1">
          <rect width="18" height="70.238" stroke="none"/>
          <rect x="0.5" y="0.5" width="17" height="69.238" fill="none"/>
        </g>
      </g>
      <g id="Group_20-2" data-name="Group 20" transform="translate(16 49.954)">
        <line id="Line_6-8" data-name="Line 6" y2="79.513" transform="translate(1226.5 524.5)" fill="none" stroke="#d2d2d2" stroke-width="1"/>
        <line id="Line_7-8" data-name="Line 7" x2="87.297" transform="translate(1226.5 604.013)" fill="none" stroke="#d2d2d2" stroke-width="1"/>
        <path id="Path_3-8" data-name="Path 3" d="M20367.277,903.118l4.432-4.665,3.965,4.665" transform="translate(-19145 -374)" fill="none" stroke="#d2d2d2" stroke-width="1"/>
        <path id="Path_4-8" data-name="Path 4" d="M20488.33,1028.137l4.666,3.965-4.666,4.432" transform="translate(-19179.703 -428.487)" fill="none" stroke="#d2d2d2" stroke-width="1"/>
        <g id="Rectangle_7-8" data-name="Rectangle 7" transform="translate(1226 570.513)" fill="#ebebeb" stroke="#d2d2d2" stroke-width="1">
          <rect width="18" height="34" stroke="none"/>
          <rect x="0.5" y="0.5" width="17" height="33" fill="none"/>
        </g>
        <g id="Rectangle_9-8" data-name="Rectangle 9" transform="translate(1250.62 552.513)" fill="#ebebeb" stroke="#d2d2d2" stroke-width="1">
          <rect width="18" height="52" stroke="none"/>
          <rect x="0.5" y="0.5" width="17" height="51" fill="none"/>
        </g>
        <g id="Rectangle_11-8" data-name="Rectangle 11" transform="translate(1276.436 534.275)" fill="#ebebeb" stroke="#d2d2d2" stroke-width="1">
          <rect width="18" height="70.238" stroke="none"/>
          <rect x="0.5" y="0.5" width="17" height="69.238" fill="none"/>
        </g>
      </g>
    </g>
    <g id="Group_22" data-name="Group 22" transform="translate(-383 49)">
      <g id="Group_8-3" data-name="Group 8" transform="translate(16 49.954)">
        <line id="Line_6-9" data-name="Line 6" y2="79.513" transform="translate(1226.5 524.5)" fill="none" stroke="#d2d2d2" stroke-width="1"/>
        <line id="Line_7-9" data-name="Line 7" x2="87.297" transform="translate(1226.5 604.013)" fill="none" stroke="#d2d2d2" stroke-width="1"/>
        <path id="Path_3-9" data-name="Path 3" d="M20367.277,903.118l4.432-4.665,3.965,4.665" transform="translate(-19145 -374)" fill="none" stroke="#d2d2d2" stroke-width="1"/>
        <path id="Path_4-9" data-name="Path 4" d="M20488.33,1028.137l4.666,3.965-4.666,4.432" transform="translate(-19179.703 -428.487)" fill="none" stroke="#d2d2d2" stroke-width="1"/>
        <g id="Rectangle_7-9" data-name="Rectangle 7" transform="translate(1226 570.513)" fill="#ebebeb" stroke="#d2d2d2" stroke-width="1">
          <rect width="18" height="34" stroke="none"/>
          <rect x="0.5" y="0.5" width="17" height="33" fill="none"/>
        </g>
        <g id="Rectangle_9-9" data-name="Rectangle 9" transform="translate(1250.62 552.513)" fill="#ebebeb" stroke="#d2d2d2" stroke-width="1">
          <rect width="18" height="52" stroke="none"/>
          <rect x="0.5" y="0.5" width="17" height="51" fill="none"/>
        </g>
        <g id="Rectangle_11-9" data-name="Rectangle 11" transform="translate(1276.436 534.275)" fill="#ebebeb" stroke="#d2d2d2" stroke-width="1">
          <rect width="18" height="70.238" stroke="none"/>
          <rect x="0.5" y="0.5" width="17" height="69.238" fill="none"/>
        </g>
      </g>
      <g id="Group_19-3" data-name="Group 19" transform="translate(16 49.954)">
        <line id="Line_6-10" data-name="Line 6" y2="79.513" transform="translate(1226.5 524.5)" fill="none" stroke="#d2d2d2" stroke-width="1"/>
        <line id="Line_7-10" data-name="Line 7" x2="87.297" transform="translate(1226.5 604.013)" fill="none" stroke="#d2d2d2" stroke-width="1"/>
        <path id="Path_3-10" data-name="Path 3" d="M20367.277,903.118l4.432-4.665,3.965,4.665" transform="translate(-19145 -374)" fill="none" stroke="#d2d2d2" stroke-width="1"/>
        <path id="Path_4-10" data-name="Path 4" d="M20488.33,1028.137l4.666,3.965-4.666,4.432" transform="translate(-19179.703 -428.487)" fill="none" stroke="#d2d2d2" stroke-width="1"/>
        <g id="Rectangle_7-10" data-name="Rectangle 7" transform="translate(1226 570.513)" fill="#ebebeb" stroke="#d2d2d2" stroke-width="1">
          <rect width="18" height="34" stroke="none"/>
          <rect x="0.5" y="0.5" width="17" height="33" fill="none"/>
        </g>
        <g id="Rectangle_9-10" data-name="Rectangle 9" transform="translate(1250.62 552.513)" fill="#ebebeb" stroke="#d2d2d2" stroke-width="1">
          <rect width="18" height="52" stroke="none"/>
          <rect x="0.5" y="0.5" width="17" height="51" fill="none"/>
        </g>
        <g id="Rectangle_11-10" data-name="Rectangle 11" transform="translate(1276.436 534.275)" fill="#ebebeb" stroke="#d2d2d2" stroke-width="1">
          <rect width="18" height="70.238" stroke="none"/>
          <rect x="0.5" y="0.5" width="17" height="69.238" fill="none"/>
        </g>
      </g>
      <g id="Group_16-3" data-name="Group 16" transform="translate(16 49.954)">
        <line id="Line_6-11" data-name="Line 6" y2="79.513" transform="translate(1226.5 524.5)" fill="none" stroke="#d2d2d2" stroke-width="1"/>
        <line id="Line_7-11" data-name="Line 7" x2="87.297" transform="translate(1226.5 604.013)" fill="none" stroke="#d2d2d2" stroke-width="1"/>
        <path id="Path_3-11" data-name="Path 3" d="M20367.277,903.118l4.432-4.665,3.965,4.665" transform="translate(-19145 -374)" fill="none" stroke="#d2d2d2" stroke-width="1"/>
        <path id="Path_4-11" data-name="Path 4" d="M20488.33,1028.137l4.666,3.965-4.666,4.432" transform="translate(-19179.703 -428.487)" fill="none" stroke="#d2d2d2" stroke-width="1"/>
        <g id="Rectangle_7-11" data-name="Rectangle 7" transform="translate(1226 570.513)" fill="#ebebeb" stroke="#d2d2d2" stroke-width="1">
          <rect width="18" height="34" stroke="none"/>
          <rect x="0.5" y="0.5" width="17" height="33" fill="none"/>
        </g>
        <g id="Rectangle_9-11" data-name="Rectangle 9" transform="translate(1250.62 552.513)" fill="#ebebeb" stroke="#d2d2d2" stroke-width="1">
          <rect width="18" height="52" stroke="none"/>
          <rect x="0.5" y="0.5" width="17" height="51" fill="none"/>
        </g>
        <g id="Rectangle_11-11" data-name="Rectangle 11" transform="translate(1276.436 534.275)" fill="#ebebeb" stroke="#d2d2d2" stroke-width="1">
          <rect width="18" height="70.238" stroke="none"/>
          <rect x="0.5" y="0.5" width="17" height="69.238" fill="none"/>
        </g>
      </g>
      <g id="Group_20-3" data-name="Group 20" transform="translate(16 49.954)">
        <line id="Line_6-12" data-name="Line 6" y2="79.513" transform="translate(1226.5 524.5)" fill="none" stroke="#d2d2d2" stroke-width="1"/>
        <line id="Line_7-12" data-name="Line 7" x2="87.297" transform="translate(1226.5 604.013)" fill="none" stroke="#d2d2d2" stroke-width="1"/>
        <path id="Path_3-12" data-name="Path 3" d="M20367.277,903.118l4.432-4.665,3.965,4.665" transform="translate(-19145 -374)" fill="none" stroke="#d2d2d2" stroke-width="1"/>
        <path id="Path_4-12" data-name="Path 4" d="M20488.33,1028.137l4.666,3.965-4.666,4.432" transform="translate(-19179.703 -428.487)" fill="none" stroke="#d2d2d2" stroke-width="1"/>
        <g id="Rectangle_7-12" data-name="Rectangle 7" transform="translate(1226 570.513)" fill="#ebebeb" stroke="#d2d2d2" stroke-width="1">
          <rect width="18" height="34" stroke="none"/>
          <rect x="0.5" y="0.5" width="17" height="33" fill="none"/>
        </g>
        <g id="Rectangle_9-12" data-name="Rectangle 9" transform="translate(1250.62 552.513)" fill="#ebebeb" stroke="#d2d2d2" stroke-width="1">
          <rect width="18" height="52" stroke="none"/>
          <rect x="0.5" y="0.5" width="17" height="51" fill="none"/>
        </g>
        <g id="Rectangle_11-12" data-name="Rectangle 11" transform="translate(1276.436 534.275)" fill="#ebebeb" stroke="#d2d2d2" stroke-width="1">
          <rect width="18" height="70.238" stroke="none"/>
          <rect x="0.5" y="0.5" width="17" height="69.238" fill="none"/>
        </g>
      </g>
    </g>
    <g id="Group_7" data-name="Group 7" transform="translate(-352 200.204)">
      <line id="Line_6-13" data-name="Line 6" y2="70.796" transform="translate(1344.5 484.5)" fill="none" stroke="#d2d2d2" stroke-width="1"/>
      <line id="Line_7-13" data-name="Line 7" x2="79.713" transform="translate(1344.5 555.296)" fill="none" stroke="#d2d2d2" stroke-width="1"/>
      <path id="Path_2" data-name="Path 2" d="M20371.5,969.3l14.4-30.268,10.584,20.162,19.711-38.3,5.951,11.214,17.859-28.99" transform="translate(-19027 -414)" fill="none" stroke="#d2d2d2" stroke-width="1"/>
      <path id="Path_3-13" data-name="Path 3" d="M20367.277,903.118l4.432-4.665,3.965,4.665" transform="translate(-19027 -414)" fill="none" stroke="#d2d2d2" stroke-width="1"/>
      <path id="Path_4-13" data-name="Path 4" d="M20488.33,1028.137l4.666,3.965-4.666,4.432" transform="translate(-19068.287 -477.204)" fill="none" stroke="#d2d2d2" stroke-width="1"/>
      <path id="Path_5" data-name="Path 5" d="M20359.615,966.654l14.51-29.8,10.525,19.961,19.926-37.916,5.725,11.028,18.086-28.528.408,65.259" transform="translate(-19015 -412)" fill="#e6e6e6" stroke="#d2d2d2" stroke-width="1"/>
    </g>
    <g id="Group_23" data-name="Group 23" transform="translate(83 80.204)">
      <line id="Line_6-14" data-name="Line 6" y2="70.796" transform="translate(1344.5 484.5)" fill="none" stroke="#d2d2d2" stroke-width="1"/>
      <line id="Line_7-14" data-name="Line 7" x2="79.713" transform="translate(1344.5 555.296)" fill="none" stroke="#d2d2d2" stroke-width="1"/>
      <path id="Path_2-2" data-name="Path 2" d="M20371.5,969.3l14.4-30.268,10.584,20.162,19.711-38.3,5.951,11.214,17.859-28.99" transform="translate(-19027 -414)" fill="none" stroke="#d2d2d2" stroke-width="1"/>
      <path id="Path_3-14" data-name="Path 3" d="M20367.277,903.118l4.432-4.665,3.965,4.665" transform="translate(-19027 -414)" fill="none" stroke="#d2d2d2" stroke-width="1"/>
      <path id="Path_4-14" data-name="Path 4" d="M20488.33,1028.137l4.666,3.965-4.666,4.432" transform="translate(-19068.287 -477.204)" fill="none" stroke="#d2d2d2" stroke-width="1"/>
      <path id="Path_5-2" data-name="Path 5" d="M20359.615,966.654l14.51-29.8,10.525,19.961,19.926-37.916,5.725,11.028,18.086-28.528.408,65.259" transform="translate(-19015 -412)" fill="#e6e6e6" stroke="#d2d2d2" stroke-width="1"/>
    </g>
    <g id="Rectangle_13" data-name="Rectangle 13" transform="translate(878 909)" fill="#ebebeb" stroke="#ebebeb" stroke-width="1">
      <rect width="175" height="172" stroke="none"/>
      <rect x="0.5" y="0.5" width="174" height="171" fill="none"/>
    </g>
    <g id="Rectangle_13-2" data-name="Rectangle 13" transform="translate(1073 862)" fill="#ebebeb" stroke="#ebebeb" stroke-width="1">
      <rect width="59" height="219" stroke="none"/>
      <rect x="0.5" y="0.5" width="58" height="218" fill="none"/>
    </g>
    <g id="Rectangle_13-3" data-name="Rectangle 13" transform="translate(1142 809)" fill="#ebebeb" stroke="#ebebeb" stroke-width="1">
      <rect width="86" height="272" stroke="none"/>
      <rect x="0.5" y="0.5" width="85" height="271" fill="none"/>
    </g>
    <g id="Rectangle_25" data-name="Rectangle 25" transform="translate(1147 778)" fill="#ebebeb" stroke="#ebebeb" stroke-width="1">
      <rect width="75" height="31" stroke="none"/>
      <rect x="0.5" y="0.5" width="74" height="30" fill="none"/>
    </g>
    <g id="Rectangle_29" data-name="Rectangle 29" transform="translate(878 879)" fill="#ebebeb" stroke="#ebebeb" stroke-width="1">
      <rect width="75" height="31" stroke="none"/>
      <rect x="0.5" y="0.5" width="74" height="30" fill="none"/>
    </g>
    <g id="Rectangle_26" data-name="Rectangle 26" transform="translate(1158 747)" fill="#ebebeb" stroke="#ebebeb" stroke-width="1">
      <rect width="55" height="31" stroke="none"/>
      <rect x="0.5" y="0.5" width="54" height="30" fill="none"/>
    </g>
    <g id="Rectangle_13-4" data-name="Rectangle 13" transform="translate(1354 738)" fill="#ebebeb" stroke="#ebebeb" stroke-width="1">
      <rect width="59" height="343" stroke="none"/>
      <rect x="0.5" y="0.5" width="58" height="342" fill="none"/>
    </g>
    <g id="Rectangle_13-5" data-name="Rectangle 13" transform="translate(1425 892)" fill="#ebebeb" stroke="#ebebeb" stroke-width="1">
      <rect width="181" height="189" stroke="none"/>
      <rect x="0.5" y="0.5" width="180" height="188" fill="none"/>
    </g>
    <g id="Rectangle_13-6" data-name="Rectangle 13" transform="translate(1626 661)" fill="#ebebeb" stroke="#ebebeb" stroke-width="1">
      <rect width="59" height="420" stroke="none"/>
      <rect x="0.5" y="0.5" width="58" height="419" fill="none"/>
    </g>
    <g id="Rectangle_13-7" data-name="Rectangle 13" transform="translate(1705 738)" fill="#ebebeb" stroke="#ebebeb" stroke-width="1">
      <rect width="59" height="343" stroke="none"/>
      <rect x="0.5" y="0.5" width="58" height="342" fill="none"/>
    </g>
    <g id="Rectangle_13-8" data-name="Rectangle 13" transform="translate(1784 761)" fill="#ebebeb" stroke="#ebebeb" stroke-width="1">
      <rect width="79" height="320" stroke="none"/>
      <rect x="0.5" y="0.5" width="78" height="319" fill="none"/>
    </g>
    <g id="Rectangle_13-9" data-name="Rectangle 13" transform="translate(1877 1007)" fill="#ebebeb" stroke="#ebebeb" stroke-width="1">
      <rect width="44" height="74" stroke="none"/>
      <rect x="0.5" y="0.5" width="43" height="73" fill="none"/>
    </g>
    <g id="Rectangle_16" data-name="Rectangle 16" transform="translate(1796 714)" fill="#ebebeb" stroke="#ebebeb" stroke-width="1">
      <rect width="35" height="47" stroke="none"/>
      <rect x="0.5" y="0.5" width="34" height="46" fill="none"/>
    </g>
    <g id="Rectangle_17" data-name="Rectangle 17" transform="translate(1831 744)" fill="#ebebeb" stroke="#ebebeb" stroke-width="1">
      <rect width="22" height="17" stroke="none"/>
      <rect x="0.5" y="0.5" width="21" height="16" fill="none"/>
    </g>
    <g id="Rectangle_27" data-name="Rectangle 27" transform="translate(1175 730)" fill="#ebebeb" stroke="#ebebeb" stroke-width="1">
      <rect width="22" height="17" stroke="none"/>
      <rect x="0.5" y="0.5" width="21" height="16" fill="none"/>
    </g>
    <g id="Rectangle_19" data-name="Rectangle 19" transform="translate(1453 876)" fill="#ebebeb" stroke="#ebebeb" stroke-width="1">
      <rect width="22" height="17" stroke="none"/>
      <rect x="0.5" y="0.5" width="21" height="16" fill="none"/>
    </g>
    <g id="Polygon_1" data-name="Polygon 1" transform="translate(1538 845)" fill="#ebebeb">
      <path d="M 60.07947540283203 46.5 L 0.920527458190918 46.5 L 30.50000190734863 0.9185147285461426 L 60.07947540283203 46.5 Z" stroke="none"/>
      <path d="M 30.50000190734863 1.837013244628906 L 1.841041564941406 46 L 59.15896224975586 46 L 30.50000190734863 1.837013244628906 M 30.50000190734863 0 L 61 47 L 3.814697265625e-06 47 L 30.50000190734863 0 Z" stroke="none" fill="#ebebeb"/>
    </g>
    <g id="Polygon_2" data-name="Polygon 2" transform="translate(1354 692)" fill="#ebebeb">
      <path d="M 59.07697677612305 45.5 L 0.9230270981788635 45.5 L 30.00000190734863 0.9153053164482117 L 59.07697677612305 45.5 Z" stroke="none"/>
      <path d="M 30.00000190734863 1.830604553222656 L 1.846050262451172 45 L 58.15395355224609 45 L 30.00000190734863 1.830604553222656 M 30.00000190734863 0 L 60 46 L 3.814697265625e-06 46 L 30.00000190734863 0 Z" stroke="none" fill="#ebebeb"/>
    </g>
    <g id="Rectangle_20" data-name="Rectangle 20" transform="translate(1497 817)" fill="#ebebeb" stroke="#ebebeb" stroke-width="1">
      <rect width="5" height="76" stroke="none"/>
      <rect x="0.5" y="0.5" width="4" height="75" fill="none"/>
    </g>
    <g id="Rectangle_24" data-name="Rectangle 24" transform="translate(1382 650)" fill="#ebebeb" stroke="#ebebeb" stroke-width="1">
      <rect width="5" height="45" stroke="none"/>
      <rect x="0.5" y="0.5" width="4" height="44" fill="none"/>
    </g>
    <g id="Rectangle_31" data-name="Rectangle 31" transform="translate(1184 685)" fill="#ebebeb" stroke="#ebebeb" stroke-width="1">
      <rect width="5" height="45" stroke="none"/>
      <rect x="0.5" y="0.5" width="4" height="44" fill="none"/>
    </g>
    <g id="Rectangle_32" data-name="Rectangle 32" transform="translate(914 753)" fill="#ebebeb" stroke="#ebebeb" stroke-width="1">
      <rect width="5" height="45" stroke="none"/>
      <rect x="0.5" y="0.5" width="4" height="44" fill="none"/>
    </g>
    <g id="Rectangle_30" data-name="Rectangle 30" transform="translate(1032 864)" fill="#ebebeb" stroke="#ebebeb" stroke-width="1">
      <rect width="5" height="45" stroke="none"/>
      <rect x="0.5" y="0.5" width="4" height="44" fill="none"/>
    </g>
    <g id="Rectangle_39" data-name="Rectangle 39" transform="translate(781 956)" fill="#ebebeb" stroke="#ebebeb" stroke-width="1">
      <rect width="5" height="45" stroke="none"/>
      <rect x="0.5" y="0.5" width="4" height="44" fill="none"/>
    </g>
    <g id="Rectangle_21" data-name="Rectangle 21" transform="translate(1649 605)" fill="#ebebeb" stroke="#ebebeb" stroke-width="1">
      <rect width="8" height="56" stroke="none"/>
      <rect x="0.5" y="0.5" width="7" height="55" fill="none"/>
    </g>
    <g id="Rectangle_22" data-name="Rectangle 22" transform="translate(1727 675)" fill="#ebebeb" stroke="#ebebeb" stroke-width="1">
      <rect width="8" height="63" stroke="none"/>
      <rect x="0.5" y="0.5" width="7" height="62" fill="none"/>
    </g>
    <g id="Ellipse_2" data-name="Ellipse 2" transform="translate(1720 692)" fill="#ebebeb" stroke="#ebebeb" stroke-width="1">
      <circle cx="11.5" cy="11.5" r="11.5" stroke="none"/>
      <circle cx="11.5" cy="11.5" r="11" fill="none"/>
    </g>
    <g id="Polygon_3" data-name="Polygon 3" transform="translate(1237 1000)" fill="#ebebeb">
      <path d="M 115.5299377441406 44.5 L 1.470057725906372 44.5 L 58.49999618530273 0.6308165788650513 L 115.5299377441406 44.5 Z" stroke="none"/>
      <path d="M 58.49999618530273 1.261634826660156 L 2.94012451171875 44 L 114.0598678588867 44 L 58.49999618530273 1.261634826660156 M 58.49999618530273 0 L 117 45 L -7.62939453125e-06 45 L 58.49999618530273 0 Z" stroke="none" fill="#ebebeb"/>
    </g>
    <g id="Ellipse_3" data-name="Ellipse 3" transform="translate(1073 839)" fill="#ebebeb" stroke="#ebebeb" stroke-width="1">
      <ellipse cx="29.5" cy="26.5" rx="29.5" ry="26.5" stroke="none"/>
      <ellipse cx="29.5" cy="26.5" rx="29" ry="26" fill="none"/>
    </g>
    <g id="Polygon_4" data-name="Polygon 4" transform="translate(878 794)" fill="#ebebeb">
      <path d="M 74.23291778564453 84.5 L 0.7670829892158508 84.5 L 37.5 1.238721489906311 L 74.23291778564453 84.5 Z" stroke="none"/>
      <path d="M 37.5 2.477447509765625 L 1.534172058105469 84 L 73.46582794189453 84 L 37.5 2.477447509765625 M 37.5 0 L 75 85 L 0 85 L 37.5 0 Z" stroke="none" fill="#ebebeb"/>
    </g>
    <g id="Group_9" data-name="Group 9" transform="translate(-2 7)">
      <path id="Path_6" data-name="Path 6" d="M21139.309,752.279s17.891-2.122,30.322-37.9,8.793-36.689,8.793-36.689l-7.668,10.2" transform="translate(-19900)" fill="none" stroke="#d2d2d2" stroke-width="1"/>
      <path id="Path_7" data-name="Path 7" d="M21178.92,677.688c5.473,12.891,4.934,11.815,4.934,11.815" transform="translate(-19900)" fill="none" stroke="#d2d2d2" stroke-width="1"/>
    </g>
    <g id="Group_11" data-name="Group 11" transform="translate(191 -30)">
      <path id="Path_6-2" data-name="Path 6" d="M21139.309,752.279s17.891-2.122,30.322-37.9,8.793-36.689,8.793-36.689l-7.668,10.2" transform="translate(-19900)" fill="none" stroke="#d2d2d2" stroke-width="1"/>
      <path id="Path_7-2" data-name="Path 7" d="M21178.92,677.688c5.473,12.891,4.934,11.815,4.934,11.815" transform="translate(-19900)" fill="none" stroke="#d2d2d2" stroke-width="1"/>
    </g>
    <g id="Group_12" data-name="Group 12" transform="translate(481 -100)">
      <path id="Path_6-3" data-name="Path 6" d="M21139.309,752.279s17.891-2.122,30.322-37.9,8.793-36.689,8.793-36.689l-7.668,10.2" transform="translate(-19900)" fill="none" stroke="#d2d2d2" stroke-width="1"/>
      <path id="Path_7-3" data-name="Path 7" d="M21178.92,677.688c5.473,12.891,4.934,11.815,4.934,11.815" transform="translate(-19900)" fill="none" stroke="#d2d2d2" stroke-width="1"/>
    </g>
    <g id="Group_13" data-name="Group 13" transform="translate(1559.309 606.688)">
      <path id="Path_6-4" data-name="Path 6" d="M21178.918,752.279s-17.891-2.122-30.322-37.9-8.793-36.689-8.793-36.689l7.668,10.2" transform="translate(-21134.359 -677.688)" fill="none" stroke="#d2d2d2" stroke-width="1"/>
      <path id="Path_7-4" data-name="Path 7" d="M21183.869,677.688c-5.473,12.891-4.934,11.815-4.934,11.815" transform="translate(-21178.922 -677.688)" fill="none" stroke="#d2d2d2" stroke-width="1"/>
    </g>
    <g id="Group_14" data-name="Group 14" transform="translate(1087.309 681.688)">
      <path id="Path_6-5" data-name="Path 6" d="M21178.918,752.279s-17.891-2.122-30.322-37.9-8.793-36.689-8.793-36.689l7.668,10.2" transform="translate(-21134.359 -677.688)" fill="none" stroke="#d2d2d2" stroke-width="1"/>
      <path id="Path_7-5" data-name="Path 7" d="M21183.869,677.688c-5.473,12.891-4.934,11.815-4.934,11.815" transform="translate(-21178.922 -677.688)" fill="none" stroke="#d2d2d2" stroke-width="1"/>
    </g>
    <g id="Group_15" data-name="Group 15" transform="translate(806.309 780.688)">
      <path id="Path_6-6" data-name="Path 6" d="M21178.918,752.279s-17.891-2.122-30.322-37.9-8.793-36.689-8.793-36.689l7.668,10.2" transform="translate(-21134.359 -677.688)" fill="none" stroke="#d2d2d2" stroke-width="1"/>
      <path id="Path_7-6" data-name="Path 7" d="M21183.869,677.688c-5.473,12.891-4.934,11.815-4.934,11.815" transform="translate(-21178.922 -677.688)" fill="none" stroke="#d2d2d2" stroke-width="1"/>
    </g>
    <g id="Group_10" data-name="Group 10" transform="translate(-279 98)">
      <path id="Path_6-7" data-name="Path 6" d="M21139.309,752.279s17.891-2.122,30.322-37.9,8.793-36.689,8.793-36.689l-7.668,10.2" transform="translate(-19900)" fill="none" stroke="#d2d2d2" stroke-width="1"/>
      <path id="Path_7-7" data-name="Path 7" d="M21178.92,677.688c5.473,12.891,4.934,11.815,4.934,11.815" transform="translate(-19900)" fill="none" stroke="#d2d2d2" stroke-width="1"/>
    </g>
    <g id="Group_17" data-name="Group 17">
      <g id="Ellipse_4" data-name="Ellipse 4" transform="translate(1502 474)" fill="#f0f0f0" stroke="#d2d2d2" stroke-width="1">
        <circle cx="42" cy="42" r="42" stroke="none"/>
        <circle cx="42" cy="42" r="41.5" fill="none"/>
      </g>
      <path id="Path_8" data-name="Path 8" d="M21444,516c-29.613,28.835-29.4,29.153-29.4,29.153l2.762,2.76,1.8,1.592,2.018,1.062,2.547,1.8,3.5,1.592,2.865,1.062,3.611,1.168,3.715.849,3.928.425h3.928l4.885-.425,3.928-.849,4.672-1.168,4.988-2.654,4.777-2.866,4.566-3.716,2.973-3.5,2.973-4.247,2.76-4.99Z" transform="translate(-19900)" fill="#e6e6e6" stroke="#d2d2d2" stroke-width="1"/>
    </g>
    <g id="Group_24" data-name="Group 24" transform="translate(-439 100)">
      <g id="Ellipse_4-2" data-name="Ellipse 4" transform="translate(1502 474)" fill="#f0f0f0" stroke="#d2d2d2" stroke-width="1">
        <circle cx="42" cy="42" r="42" stroke="none"/>
        <circle cx="42" cy="42" r="41.5" fill="none"/>
      </g>
      <path id="Path_8-2" data-name="Path 8" d="M21444,516c-29.613,28.835-29.4,29.153-29.4,29.153l2.762,2.76,1.8,1.592,2.018,1.062,2.547,1.8,3.5,1.592,2.865,1.062,3.611,1.168,3.715.849,3.928.425h3.928l4.885-.425,3.928-.849,4.672-1.168,4.988-2.654,4.777-2.866,4.566-3.716,2.973-3.5,2.973-4.247,2.76-4.99Z" transform="translate(-19900)" fill="#e6e6e6" stroke="#d2d2d2" stroke-width="1"/>
    </g>
    <g id="Group_18" data-name="Group 18" transform="translate(-787 222)">
      <g id="Ellipse_4-3" data-name="Ellipse 4" transform="translate(1502 474)" fill="#f0f0f0" stroke="#d2d2d2" stroke-width="1">
        <circle cx="42" cy="42" r="42" stroke="none"/>
        <circle cx="42" cy="42" r="41.5" fill="none"/>
      </g>
      <path id="Path_8-3" data-name="Path 8" d="M21444,516c-29.613,28.835-29.4,29.153-29.4,29.153l2.762,2.76,1.8,1.592,2.018,1.062,2.547,1.8,3.5,1.592,2.865,1.062,3.611,1.168,3.715.849,3.928.425h3.928l4.885-.425,3.928-.849,4.672-1.168,4.988-2.654,4.777-2.866,4.566-3.716,2.973-3.5,2.973-4.247,2.76-4.99Z" transform="translate(-19900)" fill="#e6e6e6" stroke="#d2d2d2" stroke-width="1"/>
    </g>
    <g id="Rectangle_38" data-name="Rectangle 38" transform="translate(726 1045)" fill="#ebebeb" stroke="#ebebeb" stroke-width="1">
      <rect width="190" height="35" stroke="none"/>
      <rect x="0.5" y="0.5" width="189" height="34" fill="none"/>
    </g>
    <g id="Polygon_5" data-name="Polygon 5" transform="translate(726 1000)" fill="#ebebeb">
      <path d="M 115.5299377441406 44.5 L 1.470057725906372 44.5 L 58.49999618530273 0.6308165788650513 L 115.5299377441406 44.5 Z" stroke="none"/>
      <path d="M 58.49999618530273 1.261634826660156 L 2.94012451171875 44 L 114.0598678588867 44 L 58.49999618530273 1.261634826660156 M 58.49999618530273 0 L 117 45 L -7.62939453125e-06 45 L 58.49999618530273 0 Z" stroke="none" fill="#ebebeb"/>
    </g>
  </g>
</svg>
