<svg width="800" height="600" xmlns="http://www.w3.org/2000/svg">
 <!-- Created with Method Draw - http://github.com/duopixel/Method-Draw/ -->

 <g>
  <title>background</title>
  <rect fill="#fff" id="canvas_background" height="602" width="802" y="-1" x="-1"/>
 </g>
 <g>
  <title>Layer 1</title>
  <g id="svg_21">
   <path id="svg_5" d="m68091.8896,51057.768l-0.03505,0c-0.00454,0 -0.00822,0.00368 -0.00822,0.00822l0,0.12324l-0.03615,0l0,-0.09695c0,-0.00454 -0.00368,-0.00822 -0.00822,-0.00822l-0.10516,0l-0.10516,0l-0.10516,0c-0.00454,0 -0.00822,0.00368 -0.00822,0.00822l0,0.09695l-0.03615,0l0,-0.12324c0,-0.00454 -0.00368,-0.00822 -0.00822,-0.00822l-0.03505,0c-0.00454,0 -0.00822,0.00368 -0.00822,0.00822l0,0.44694c0,0.00454 0.00368,0.00822 0.00822,0.00822l0.03505,0c0.00454,0 0.00822,-0.00368 0.00822,-0.00822l0,-0.02684l0.40422,0l0,0.02684c0,0.00454 0.00368,0.00822 0.00822,0.00822l0.03505,0c0.00454,0 0.00822,-0.00368 0.00822,-0.00822l0,-0.44694c0,-0.00454 -0.00368,-0.00822 -0.00822,-0.00822zm-0.18458,0.11283l0.08873,0l0,0.01862l-0.08873,0l0,-0.01862zm0.08873,-0.01643l-0.08873,0l0,-0.05368l0.03615,0l0,0.00931c0,0.00454 0.00368,0.00822 0.00822,0.00822s0.00822,-0.00368 0.00822,-0.00822l0,-0.00931l0.03615,0l0,0.05368zm-0.10516,0.03505l-0.08873,0l0,-0.08873l0.03615,0l0,0.00931c0,0.00454 0.00368,0.00822 0.00822,0.00822s0.00822,-0.00368 0.00822,-0.00822l0,-0.00931l0.03615,0l0,0.08873zm-0.19389,-0.08873l0.03615,0l0,0.00931c0,0.00454 0.00368,0.00822 0.00822,0.00822s0.00822,-0.00368 0.00822,-0.00822l0,-0.00931l0.03615,0l0,0.08873l-0.08873,0l0,-0.08873zm0.35164,0.10516l0,0.12379l-0.03615,0l0,-0.09695c0,-0.00454 -0.00368,-0.00822 -0.00822,-0.00822l-0.10516,0l-0.10516,0l-0.10516,0c-0.00454,0 -0.00822,0.00368 -0.00822,0.00822l0,0.09695l-0.03615,0l0,-0.12379l0.40422,0zm-0.24647,0.12379l0,-0.08873l0.03615,0l0,0.00931c0,0.00454 0.00368,0.00822 0.00822,0.00822s0.00822,-0.00368 0.00822,-0.00822l0,-0.00931l0.03615,0l0,0.08873l-0.08873,0zm-0.10516,0l0,-0.01862l0.08873,0l0,0.01862l-0.08873,0zm0.04437,-0.0712c0.00454,0 0.00822,-0.00368 0.00822,-0.00822l0,-0.00931l0.03615,0l0,0.05368l-0.08873,0l0,-0.05368l0.03615,0l0,0.00931c0,0.00454 0.00368,0.00822 0.00822,0.00822zm0.16596,-0.01753l0.03615,0l0,0.00931c0,0.00454 0.00368,0.00822 0.00822,0.00822s0.00822,-0.00368 0.00822,-0.00822l0,-0.00931l0.03615,0l0,0.08873l-0.08873,0l0,-0.08873zm-0.27934,0.264l-0.01862,0l0,-0.43051l0.01862,0l0,0.43051zm0.11338,-0.10626c0.00454,0 0.00822,-0.00368 0.00822,-0.00822l0,-0.00931l0.03615,0l0,0.08873l-0.08873,0l0,-0.08873l0.03615,0l0,0.00931c0,0.00454 0.00368,0.00822 0.00822,0.00822zm0.0608,-0.01753l0.03615,0l0,0.00931c0,0.00454 0.00368,0.00822 0.00822,0.00822s0.00822,-0.00368 0.00822,-0.00822l0,-0.00931l0.03615,0l0,0.05368l-0.08873,0l0,-0.05368zm0,0.07011l0.08873,0l0,0.01862l-0.08873,0l0,-0.01862zm0.10516,0.01862l0,-0.08873l0.03615,0l0,0.00931c0,0.00454 0.00368,0.00822 0.00822,0.00822s0.00822,-0.00368 0.00822,-0.00822l0,-0.00931l0.03615,0l0,0.08873l-0.08873,0zm0.10516,0l0,-0.09695c0,-0.00454 -0.00368,-0.00822 -0.00822,-0.00822l-0.10516,0l-0.10516,0l-0.10516,0c-0.00454,0 -0.00822,0.00368 -0.00822,0.00822l0,0.09695l-0.03615,0l0,-0.12379l0.40422,0l0,0.12379l-0.03615,0zm0.0712,0.03505l-0.01862,0l0,-0.43051l0.01862,0l0,0.43051z"/>
   <g id="svg_6"/>
   <g id="svg_7"/>
   <g id="svg_8"/>
   <g id="svg_9"/>
   <g id="svg_10"/>
   <g id="svg_11"/>
   <g id="svg_12"/>
   <g id="svg_13"/>
   <g id="svg_14"/>
   <g id="svg_15"/>
   <g id="svg_16"/>
   <g id="svg_17"/>
   <g id="svg_18"/>
   <g id="svg_19"/>
   <g id="svg_20"/>
  </g>
  <g id="svg_42">
   <path id="svg_26" d="m624,88.5l-32,0c-4.142,0 -7.5,3.358 -7.5,7.5l0,112.5l-33,0l0,-88.5c0,-4.142 -3.358,-7.5 -7.5,-7.5l-96,0l-96,0l-96,0c-4.142,0 -7.5,3.358 -7.5,7.5l0,88.5l-33,0l0,-112.5c0,-4.142 -3.358,-7.5 -7.5,-7.5l-32,0c-4.142,0 -7.5,3.358 -7.5,7.5l0,408c0,4.142 3.358,7.5 7.5,7.5l32,0c4.142,0 7.5,-3.358 7.5,-7.5l0,-24.5l369,0l0,24.5c0,4.142 3.358,7.5 7.5,7.5l32,0c4.142,0 7.5,-3.358 7.5,-7.5l0,-408c0,-4.142 -3.358,-7.5 -7.5,-7.5zm-168.5,103l81,0l0,17l-81,0l0,-17zm81,-15l-81,0l0,-49l33,0l0,8.5c0,4.142 3.358,7.5 7.5,7.5s7.5,-3.358 7.5,-7.5l0,-8.5l33,0l0,49zm-96,32l-81,0l0,-81l33,0l0,8.5c0,4.142 3.358,7.5 7.5,7.5s7.5,-3.358 7.5,-7.5l0,-8.5l33,0l0,81zm-177,-81l33,0l0,8.5c0,4.142 3.358,7.5 7.5,7.5s7.5,-3.358 7.5,-7.5l0,-8.5l33,0l0,81l-81,0l0,-81zm321,96l0,113l-33,0l0,-88.5c0,-4.142 -3.358,-7.5 -7.5,-7.5l-96,0l-96,0l-96,0c-4.142,0 -7.5,3.358 -7.5,7.5l0,88.5l-33,0l0,-113l369,0zm-225,113l0,-81l33,0l0,8.5c0,4.142 3.358,7.5 7.5,7.5s7.5,-3.358 7.5,-7.5l0,-8.5l33,0l0,81l-81,0zm-96,0l0,-17l81,0l0,17l-81,0zm40.5,-65c4.142,0 7.5,-3.358 7.5,-7.5l0,-8.5l33,0l0,49l-81,0l0,-49l33,0l0,8.5c0,4.142 3.358,7.5 7.5,7.5zm151.5,-16l33,0l0,8.5c0,4.142 3.358,7.5 7.5,7.5s7.5,-3.358 7.5,-7.5l0,-8.5l33,0l0,81l-81,0l0,-81zm-255,241l-17,0l0,-393l17,0l0,393zm103.5,-97c4.142,0 7.5,-3.358 7.5,-7.5l0,-8.5l33,0l0,81l-81,0l0,-81l33,0l0,8.5c0,4.142 3.358,7.5 7.5,7.5zm55.5,-16l33,0l0,8.5c0,4.142 3.358,7.5 7.5,7.5s7.5,-3.358 7.5,-7.5l0,-8.5l33,0l0,49l-81,0l0,-49zm0,64l81,0l0,17l-81,0l0,-17zm96,17l0,-81l33,0l0,8.5c0,4.142 3.358,7.5 7.5,7.5s7.5,-3.358 7.5,-7.5l0,-8.5l33,0l0,81l-81,0zm96,0l0,-88.5c0,-4.142 -3.358,-7.5 -7.5,-7.5l-96,0l-96,0l-96,0c-4.142,0 -7.5,3.358 -7.5,7.5l0,88.5l-33,0l0,-113l369,0l0,113l-33,0zm65,32l-17,0l0,-393l17,0l0,393z"/>
   <g id="svg_27"/>
   <g id="svg_28"/>
   <g id="svg_29"/>
   <g id="svg_30"/>
   <g id="svg_31"/>
   <g id="svg_32"/>
   <g id="svg_33"/>
   <g id="svg_34"/>
   <g id="svg_35"/>
   <g id="svg_36"/>
   <g id="svg_37"/>
   <g id="svg_38"/>
   <g id="svg_39"/>
   <g id="svg_40"/>
   <g id="svg_41"/>
  </g>
 </g>
</svg>