<svg width="800" height="600" xmlns="http://www.w3.org/2000/svg">
 <!-- Created with Method Draw - http://github.com/duopixel/Method-Draw/ -->

 <g>
  <title>background</title>
  <rect fill="#fff" id="canvas_background" height="602" width="802" y="-1" x="-1"/>
 </g>
 <g>
  <title>Layer 1</title>
  <g id="svg_23">
   <g id="svg_5">
    <g id="svg_6">
     <path id="svg_7" d="m35952.62266,11261.82328c-50.93,-27.008 -89.996,-42.152 -124.772,-47.958l3.599,-4.948c1.707,-1.707 2.56,-4.267 1.707,-6.827l-7.997,-31.987c2.898,-4.097 5.632,-8.333 8.193,-12.688c31.8,-10.823 47.881,-29.118 50.583,-56.054c13.968,-0.728 26.02,-13.195 26.02,-27.271l0,-64c0,-14.012 -11.147,-26.429 -25.75,-27.26c-1.879,-49.296 -23.615,-145.967 -161.983,-145.967c-138.371,0 -160.105,96.675 -161.984,145.97c-13.853,0.818 -25.749,12.449 -25.749,27.256l0,64c0,14.507 12.8,27.307 28.16,27.307l12.8,0c4.704,0 9.225,-1.352 13.163,-3.666c4.839,25.685 15.518,50.948 30.674,72.372l-7.997,31.987c0,1.707 0,4.267 1.707,6.827l3.599,4.948c-34.776,5.807 -73.842,20.95 -124.772,47.958c-16.214,7.681 -25.601,23.894 -25.601,41.814l0,36.693c0,5.121 3.413,8.534 8.533,8.534l204.8,0l3.413,0l78.507,0l3.413,0l204.8,0c5.12,0 8.533,-3.413 8.533,-8.533l0,-36.693c0.001,-17.067 -10.239,-33.281 -25.599,-41.814zm-230.353,-19.519l20.433,46.826l-41.245,0l20.812,-46.826zm-27.012,63.892l53.897,0l4.995,25.6l-64.013,0l5.121,-25.6zm116.565,-119.466l3.413,15.36l-8.717,11.969c-0.556,0.455 -1.071,1.006 -1.523,1.684l-35.495,49.147l-11.262,15.464l-23.005,-51.761c28.058,-3.422 53.044,-17.722 73.077,-38.212c1.184,-1.194 2.356,-2.407 3.512,-3.651zm33.321,-53.083c4.813,-11.711 8.441,-23.884 10.735,-36.154c3.249,1.968 6.948,3.283 10.936,3.729c-1.479,12.062 -6.838,23.45 -21.671,32.425zm46.892,-124.411l0,64c0,5.12 -4.267,10.24 -10.24,10.24l-12.8,0c-5.12,0 -10.24,-4.267 -10.24,-10.24l0,-5.973l0,-58.027c0,-5.12 4.267,-10.24 10.24,-10.24l12.8,0c5.12,0 10.24,4.267 10.24,10.24zm-169.813,-155.306c52.597,0 141.118,17.17 144.924,128.992c-3.576,0.367 -7.001,1.454 -10.099,3.124c-10.384,-64.981 -67.038,-115.05 -134.825,-115.05c-67.778,0 -124.426,50.055 -134.821,115.022c-3.052,-1.648 -6.46,-2.737 -10.104,-3.099c3.808,-111.819 92.329,-128.989 144.925,-128.989zm-137.387,219.306c0,5.12 -4.267,10.24 -10.24,10.24l-12.8,0c-5.12,0 -10.24,-4.267 -10.24,-10.24l0,-64c0,-5.12 4.267,-10.24 10.24,-10.24l12.8,0c5.12,0 10.24,4.267 10.24,10.24l0,64zm17.92,-65.706c0,-65.707 53.76,-119.467 119.467,-119.467s119.467,53.76 119.467,119.467l0,59.733c0,28.232 -7.35,54.079 -19.266,75.887c-20.368,5.908 -49.669,9.446 -91.667,9.446c-5.12,0 -8.533,3.413 -8.533,8.533s3.413,8.533 8.533,8.533c30.745,0 56.458,-1.888 77.515,-5.835c-0.523,0.523 -1.046,1.046 -1.569,1.569c-4.293,5.724 -8.824,10.943 -13.558,15.649c-20.093,18.719 -44.058,30.058 -67.152,31.181c-1.162,-0.499 -2.465,-0.75 -3.77,-0.75c-1.312,0 -2.494,0.257 -3.554,0.761c-14.136,-0.648 -28.603,-5.129 -42.316,-12.793c-13.893,-7.982 -26.962,-19.489 -38.61,-34.048c-0.853,-0.853 -1.707,-1.707 -2.56,-2.56l-0.498,-0.166c-19.164,-25.134 -31.929,-58.199 -31.929,-95.407l0,-59.733zm106.455,221.063l-23.005,51.761l-11.262,-15.464l-35.495,-49.147c-0.272,-0.272 -0.572,-0.541 -0.884,-0.806l-9.356,-12.847l3.413,-15.36c1.155,1.244 2.327,2.456 3.509,3.649c20.034,20.49 45.022,34.791 73.08,38.214zm-225.921,75.043c0,-11.093 5.973,-21.333 16.213,-26.453c54.393,-28.896 93.548,-43.399 128.428,-47.731l50.922,70.018l-6.465,32.326l-189.098,0l0,-28.16zm477.866,28.16l-189.098,0l-6.465,-32.326l51.474,-70.777c34.757,5.245 74.615,19.737 127.877,47.636c10.24,5.973 16.213,16.213 16.213,27.307l0,28.16l-0.001,0z"/>
    </g>
   </g>
   <g id="svg_8"/>
   <g id="svg_9"/>
   <g id="svg_10"/>
   <g id="svg_11"/>
   <g id="svg_12"/>
   <g id="svg_13"/>
   <g id="svg_14"/>
   <g id="svg_15"/>
   <g id="svg_16"/>
   <g id="svg_17"/>
   <g id="svg_18"/>
   <g id="svg_19"/>
   <g id="svg_20"/>
   <g id="svg_21"/>
   <g id="svg_22"/>
  </g>
  <g id="svg_46">
   <g id="svg_28">
    <g id="svg_29">
     <path id="svg_30" d="m630.4005,468.96c-50.93,-27.008 -89.996,-42.152 -124.772,-47.958l3.599,-4.948c1.707,-1.707 2.56,-4.267 1.707,-6.827l-7.997,-31.987c2.898,-4.097 5.632,-8.333 8.193,-12.688c31.8,-10.823 47.881,-29.118 50.583,-56.054c13.968,-0.728 26.02,-13.195 26.02,-27.271l0,-64c0,-14.012 -11.147,-26.429 -25.75,-27.26c-1.879,-49.296 -23.615,-145.967 -161.983,-145.967c-138.371,0 -160.105,96.675 -161.984,145.97c-13.853,0.818 -25.749,12.449 -25.749,27.256l0,64c0,14.507 12.8,27.307 28.16,27.307l12.8,0c4.704,0 9.225,-1.352 13.163,-3.666c4.839,25.685 15.518,50.948 30.674,72.372l-7.997,31.987c0,1.707 0,4.267 1.707,6.827l3.599,4.948c-34.776,5.807 -73.842,20.95 -124.772,47.958c-16.214,7.681 -25.601,23.894 -25.601,41.814l0,36.693c0,5.121 3.413,8.534 8.533,8.534l204.8,0l3.413,0l78.507,0l3.413,0l204.8,0c5.12,0 8.533,-3.413 8.533,-8.533l0,-36.693c0.001,-17.067 -10.239,-33.281 -25.599,-41.814zm-230.353,-19.519l20.433,46.826l-41.245,0l20.812,-46.826zm-27.012,63.892l53.897,0l4.995,25.6l-64.013,0l5.121,-25.6zm116.565,-119.466l3.413,15.36l-8.717,11.969c-0.556,0.455 -1.071,1.006 -1.523,1.684l-35.495,49.147l-11.262,15.464l-23.005,-51.761c28.058,-3.422 53.044,-17.722 73.077,-38.212c1.184,-1.194 2.356,-2.407 3.512,-3.651zm33.321,-53.083c4.813,-11.711 8.441,-23.884 10.735,-36.154c3.249,1.968 6.948,3.283 10.936,3.729c-1.479,12.062 -6.838,23.45 -21.671,32.425zm46.892,-124.411l0,64c0,5.12 -4.267,10.24 -10.24,10.24l-12.8,0c-5.12,0 -10.24,-4.267 -10.24,-10.24l0,-5.973l0,-58.027c0,-5.12 4.267,-10.24 10.24,-10.24l12.8,0c5.12,0 10.24,4.267 10.24,10.24zm-169.813,-155.306c52.597,0 141.118,17.17 144.924,128.992c-3.576,0.367 -7.001,1.454 -10.099,3.124c-10.384,-64.981 -67.038,-115.05 -134.825,-115.05c-67.778,0 -124.426,50.055 -134.821,115.022c-3.052,-1.648 -6.46,-2.737 -10.104,-3.099c3.808,-111.819 92.329,-128.989 144.925,-128.989zm-137.387,219.306c0,5.12 -4.267,10.24 -10.24,10.24l-12.8,0c-5.12,0 -10.24,-4.267 -10.24,-10.24l0,-64c0,-5.12 4.267,-10.24 10.24,-10.24l12.8,0c5.12,0 10.24,4.267 10.24,10.24l0,64zm17.92,-65.706c0,-65.707 53.76,-119.467 119.467,-119.467s119.467,53.76 119.467,119.467l0,59.733c0,28.232 -7.35,54.079 -19.266,75.887c-20.368,5.908 -49.669,9.446 -91.667,9.446c-5.12,0 -8.533,3.413 -8.533,8.533s3.413,8.533 8.533,8.533c30.745,0 56.458,-1.888 77.515,-5.835c-0.523,0.523 -1.046,1.046 -1.569,1.569c-4.293,5.724 -8.824,10.943 -13.558,15.649c-20.093,18.719 -44.058,30.058 -67.152,31.181c-1.162,-0.499 -2.465,-0.75 -3.77,-0.75c-1.312,0 -2.494,0.257 -3.554,0.761c-14.136,-0.648 -28.603,-5.129 -42.316,-12.793c-13.893,-7.982 -26.962,-19.489 -38.61,-34.048c-0.853,-0.853 -1.707,-1.707 -2.56,-2.56l-0.498,-0.166c-19.164,-25.134 -31.929,-58.199 -31.929,-95.407l0,-59.733zm106.455,221.063l-23.005,51.761l-11.262,-15.464l-35.495,-49.147c-0.272,-0.272 -0.572,-0.541 -0.884,-0.806l-9.356,-12.847l3.413,-15.36c1.155,1.244 2.327,2.456 3.509,3.649c20.034,20.49 45.022,34.791 73.08,38.214zm-225.921,75.043c0,-11.093 5.973,-21.333 16.213,-26.453c54.393,-28.896 93.548,-43.399 128.428,-47.731l50.922,70.018l-6.465,32.326l-189.098,0l0,-28.16zm477.866,28.16l-189.098,0l-6.465,-32.326l51.474,-70.777c34.757,5.245 74.615,19.737 127.877,47.636c10.24,5.973 16.213,16.213 16.213,27.307l0,28.16l-0.001,0z"/>
    </g>
   </g>
   <g id="svg_31"/>
   <g id="svg_32"/>
   <g id="svg_33"/>
   <g id="svg_34"/>
   <g id="svg_35"/>
   <g id="svg_36"/>
   <g id="svg_37"/>
   <g id="svg_38"/>
   <g id="svg_39"/>
   <g id="svg_40"/>
   <g id="svg_41"/>
   <g id="svg_42"/>
   <g id="svg_43"/>
   <g id="svg_44"/>
   <g id="svg_45"/>
  </g>
 </g>
</svg>