<?xml version="1.0" encoding="UTF-8" standalone="no"?>
<svg
   xmlns:dc="http://purl.org/dc/elements/1.1/"
   xmlns:cc="http://creativecommons.org/ns#"
   xmlns:rdf="http://www.w3.org/1999/02/22-rdf-syntax-ns#"
   xmlns:svg="http://www.w3.org/2000/svg"
   xmlns="http://www.w3.org/2000/svg"
   id="svg8"
   version="1.1"
   viewBox="0 0 210 297"
   height="297mm"
   width="210mm">
  <defs
     id="defs2" />
  <metadata
     id="metadata5">
    <rdf:RDF>
      <cc:Work
         rdf:about="">
        <dc:format>image/svg+xml</dc:format>
        <dc:type
           rdf:resource="http://purl.org/dc/dcmitype/StillImage" />
        <dc:title></dc:title>
      </cc:Work>
    </rdf:RDF>
  </metadata>
  <g
     id="layer1">
    <g
       transform="matrix(0.26458333,0,0,0.26458333,-5.38973e11,-2.1910771e11)"
       id="g116">
      <g
         id="g13">
        <title
           id="title10">background</title>
        <path
           id="canvas_background"
           d="M -1,-1 H 801 V 601 H -1 Z"
           style="fill:#ffffff" />
      </g>
      <g
         id="g59">
        <title
           id="title15">Layer 1</title>
        <g
           id="svg_17">
          <g
             transform="scale(0.18659414)"
             id="svg_4">
            <g
               id="svg_5">
              <path
                 id="svg_6"
                 d="m 9355048.3,6733091.2 c -39.4,0 -71.5,32.1 -71.5,71.5 0,39.4 32.1,71.5 71.5,71.5 39.5,0 71.5,-32.1 71.5,-71.5 0,-39.4 -32,-71.5 -71.5,-71.5 z m 0,128 c -31.1,0 -56.5,-25.3 -56.5,-56.5 0,-31.1 25.4,-56.5 56.5,-56.5 31.2,0 56.5,25.4 56.5,56.5 0,31.2 -25.3,56.5 -56.5,56.5 z" />
              <path
                 id="svg_7"
                 d="m 9355048.3,6733251.2 c -39.4,0 -71.5,32.1 -71.5,71.5 0,39.4 32.1,71.5 71.5,71.5 39.5,0 71.5,-32.1 71.5,-71.5 0,-39.4 -32,-71.5 -71.5,-71.5 z m 0,128 c -31.1,0 -56.5,-25.3 -56.5,-56.5 0,-31.1 25.4,-56.5 56.5,-56.5 31.2,0 56.5,25.4 56.5,56.5 0,31.2 -25.3,56.5 -56.5,56.5 z" />
              <path
                 id="svg_8"
                 d="m 61308848,44126307 c -40,0 -72,32 -72,71 0,39 32,72 72,72 39,0 71,-33 71,-72 0,-39 -32,-71 -71,-71 z m 0,128 c -31,0 -57,-26 -57,-57 0,-31 26,-56 57,-56 31,0 56,25 56,56 0,31 -25,57 -56,57 z" />
              <path
                 id="svg_9"
                 d="m 61308866,44126037 -26,26 -11,-10 c -3,-3 -8,-3 -11,0 -3,3 -3,7 0,10 l 16,16 c 2,2 4,3 6,3 2,0 4,-1 5,-3 l 32,-32 c 3,-3 3,-7 0,-10 -3,-3 -8,-3 -11,0 z" />
              <path
                 id="svg_10"
                 d="m 259935160,187084210 -30,30 -10,-10 c 0,0 -10,0 -10,0 0,0 0,10 0,10 l 20,20 c 0,0 0,0 0,0 0,0 10,0 10,0 l 30,-30 c 0,-10 0,-10 0,-20 0,0 -10,0 -10,0 z" />
              <path
                 id="svg_11"
                 d="m 1593494000,1146891100 h 100 c 0,0 0,0 0,0 0,0 0,0 0,0 h -100 c 0,0 0,0 0,0 0,0 0,0 0,0 z" />
              <path
                 id="svg_12"
                 d="m 1593494000,1146891100 h 200 c 0,0 0,0 0,0 0,0 0,0 0,0 h -200 c 0,0 0,0 0,0 0,0 0,0 0,0 z" />
              <path
                 id="svg_13"
                 d="m 1593494000,1146891200 h 100 c 0,0 0,0 0,0 0,0 0,0 0,0 h -100 c 0,0 0,0 0,0 0,0 0,0 0,0 z" />
              <path
                 id="svg_14"
                 d="m 1593494200,1146891300 h -200 c 0,0 0,0 0,0 0,0 0,0 0,0 h 200 c 0,0 0,0 0,0 0,0 0,0 0,0 z" />
              <path
                 id="svg_15"
                 d="m 1593494000,1146891400 h 100 c 0,0 0,0 0,0 0,0 0,0 0,0 h -100 c 0,0 0,0 0,0 0,0 0,0 0,0 z" />
              <path
                 id="svg_16"
                 d="m 1593494200,1146891400 h -200 c 0,0 0,0 0,0 0,0 0,100 0,100 h 200 c 0,0 0,-100 0,-100 0,0 0,0 0,0 z" />
            </g>
          </g>
        </g>
        <g
           id="svg_34">
          <g
             id="svg_21">
            <g
               id="svg_22">
              <path
                 id="svg_23"
                 d="m 4.0741267e12,1.6562473e12 c 0,0 0,0 0,0 0,0 0,0 0,0 0,0 0,0 0,0 0,0 0,0 0,0 z m 0,0 c 0,0 0,0 0,0 0,0 0,0 0,0 0,0 0,0 0,0 0,0 0,0 0,0 z" />
              <path
                 id="svg_24"
                 d="m 4.0741267e12,1.6562473e12 c 0,0 0,0 0,0 0,0 0,0 0,0 0,0 0,0 0,0 0,0 0,0 0,0 z m 0,0 c 0,0 0,0 0,0 0,0 0,0 0,0 0,0 0,0 0,0 0,0 0,0 0,0 z" />
              <path
                 id="svg_25"
                 d="m 4.0741267e12,1.6562473e12 c 0,0 0,0 0,0 0,0 0,0 0,0 0,0 0,0 0,0 0,0 0,0 0,0 z m 0,0 c 0,0 0,0 0,0 0,0 0,0 0,0 0,0 0,0 0,0 0,0 0,0 0,0 z" />
              <path
                 id="svg_26"
                 d="m 4.0741267e12,1.6562473e12 v 0 0 c 0,0 0,0 0,0 0,0 0,0 0,0 v 0 c 0,0 0,0 0,0 0,0 0,0 0,0 v 0 c 0,0 0,0 0,0 0,0 0,0 0,0 z" />
              <path
                 id="svg_27"
                 d="m 4.0741267e12,1.6562473e12 v 0 0 c 0,0 0,0 0,0 0,0 0,0 0,0 v 0 c 0,0 0,0 0,0 0,0 0,0 0,0 v 0 c 0,0 0,0 0,0 0,0 0,0 0,0 z" />
              <path
                 id="svg_28"
                 d="m 4.0741267e12,1.6562473e12 v 0 c 0,0 0,0 0,0 0,0 0,0 0,0 v 0 c 0,0 0,0 0,0 0,0 0,0 0,0 z" />
              <path
                 id="svg_29"
                 d="m 4.0741267e12,1.6562473e12 v 0 c 0,0 0,0 0,0 0,0 0,0 0,0 v 0 c 0,0 0,0 0,0 0,0 0,0 0,0 z" />
              <path
                 id="svg_30"
                 d="m 4.0741267e12,1.6562473e12 v 0 c 0,0 0,0 0,0 0,0 0,0 0,0 v 0 c 0,0 0,0 0,0 0,0 0,0 0,0 z" />
              <path
                 id="svg_31"
                 d="m 4.0741267e12,1.6562473e12 v 0 c 0,0 0,0 0,0 0,0 0,0 0,0 v 0 c 0,0 0,0 0,0 0,0 0,0 0,0 z" />
              <path
                 id="svg_32"
                 d="m 4.0741267e12,1.6562473e12 v 0 c 0,0 0,0 0,0 0,0 0,0 0,0 v 0 c 0,0 0,0 0,0 0,0 0,0 0,0 z" />
              <path
                 id="svg_33"
                 d="m 4.0741267e12,1.6562473e12 v 0 c 0,0 0,0 0,0 0,0 0,0 0,0 v 0 c 0,0 0,0 0,0 0,0 0,0 0,0 z" />
            </g>
          </g>
        </g>
        <g
           id="svg_51">
          <g
             id="svg_38">
            <g
               id="svg_39">
              <path
                 id="svg_40"
                 d="m 240,68.5 c -39.425,0 -71.5,32.075 -71.5,71.5 0,39.425 32.075,71.5 71.5,71.5 39.425,0 71.5,-32.075 71.5,-71.5 0,-39.425 -32.075,-71.5 -71.5,-71.5 z m 0,128 c -31.154,0 -56.5,-25.346 -56.5,-56.5 0,-31.154 25.346,-56.5 56.5,-56.5 31.154,0 56.5,25.346 56.5,56.5 0,31.154 -25.346,56.5 -56.5,56.5 z" />
              <path
                 id="svg_41"
                 d="m 240,228.5 c -39.425,0 -71.5,32.075 -71.5,71.5 0,39.425 32.075,71.5 71.5,71.5 39.425,0 71.5,-32.075 71.5,-71.5 0,-39.425 -32.075,-71.5 -71.5,-71.5 z m 0,128 c -31.154,0 -56.5,-25.346 -56.5,-56.5 0,-31.154 25.346,-56.5 56.5,-56.5 31.154,0 56.5,25.346 56.5,56.5 0,31.154 -25.346,56.5 -56.5,56.5 z" />
              <path
                 id="svg_42"
                 d="m 240,388.5 c -39.425,0 -71.5,32.075 -71.5,71.5 0,39.425 32.075,71.5 71.5,71.5 39.425,0 71.5,-32.075 71.5,-71.5 0,-39.425 -32.075,-71.5 -71.5,-71.5 z m 0,128 c -31.154,0 -56.5,-25.346 -56.5,-56.5 0,-31.154 25.346,-56.5 56.5,-56.5 31.154,0 56.5,25.346 56.5,56.5 0,31.154 -25.346,56.5 -56.5,56.5 z" />
              <path
                 id="svg_43"
                 d="M 258.696,118.697 232,145.394 221.304,134.697 c -2.93,-2.929 -7.678,-2.929 -10.607,0 -2.929,2.929 -2.929,7.678 0,10.606 l 16,16 c 1.464,1.465 3.384,2.197 5.303,2.197 1.919,0 3.839,-0.732 5.304,-2.197 l 32,-32 c 2.929,-2.929 2.929,-7.678 0,-10.606 -2.93,-2.929 -7.678,-2.929 -10.608,0 z" />
              <path
                 id="svg_44"
                 d="M 258.696,278.697 232,305.394 221.304,294.697 c -2.93,-2.929 -7.678,-2.929 -10.607,0 -2.929,2.929 -2.929,7.678 0,10.606 l 16,16 c 1.464,1.465 3.384,2.197 5.303,2.197 1.919,0 3.839,-0.732 5.304,-2.197 l 32,-32 c 2.929,-2.929 2.929,-7.678 0,-10.606 -2.93,-2.929 -7.678,-2.929 -10.608,0 z" />
              <path
                 id="svg_45"
                 d="m 344,123.5 h 144 c 4.143,0 7.5,-3.358 7.5,-7.5 0,-4.142 -3.357,-7.5 -7.5,-7.5 H 344 c -4.143,0 -7.5,3.358 -7.5,7.5 0,4.142 3.357,7.5 7.5,7.5 z" />
              <path
                 id="svg_46"
                 d="m 344,171.5 h 280 c 4.143,0 7.5,-3.358 7.5,-7.5 0,-4.142 -3.357,-7.5 -7.5,-7.5 H 344 c -4.143,0 -7.5,3.358 -7.5,7.5 0,4.142 3.357,7.5 7.5,7.5 z" />
              <path
                 id="svg_47"
                 d="m 344,283.5 h 144 c 4.143,0 7.5,-3.358 7.5,-7.5 0,-4.142 -3.357,-7.5 -7.5,-7.5 H 344 c -4.143,0 -7.5,3.358 -7.5,7.5 0,4.142 3.357,7.5 7.5,7.5 z" />
              <path
                 id="svg_48"
                 d="M 624,316.5 H 344 c -4.143,0 -7.5,3.358 -7.5,7.5 0,4.142 3.357,7.5 7.5,7.5 h 280 c 4.143,0 7.5,-3.358 7.5,-7.5 0,-4.142 -3.357,-7.5 -7.5,-7.5 z" />
              <path
                 id="svg_49"
                 d="m 344,443.5 h 144 c 4.143,0 7.5,-3.358 7.5,-7.5 0,-4.142 -3.357,-7.5 -7.5,-7.5 H 344 c -4.143,0 -7.5,3.358 -7.5,7.5 0,4.142 3.357,7.5 7.5,7.5 z" />
              <path
                 id="svg_50"
                 d="M 624,476.5 H 344 c -4.143,0 -7.5,3.358 -7.5,7.5 0,4.142 3.357,7.5 7.5,7.5 h 280 c 4.143,0 7.5,-3.358 7.5,-7.5 0,-4.142 -3.357,-7.5 -7.5,-7.5 z" />
            </g>
          </g>
        </g>
      </g>
    </g>
  </g>
</svg>
