<svg width="800" height="600" xmlns="http://www.w3.org/2000/svg">
 <!-- Created with Method Draw - http://github.com/duopixel/Method-Draw/ -->

 <g>
  <title>background</title>
  <rect fill="#fff" id="canvas_background" height="602" width="802" y="-1" x="-1"/>
 </g>
 <g>
  <title>Layer 1</title>
  <g id="svg_5">
   <path id="svg_4" d="m416.80165,274.22204l0,-6.57436c0,-1.1895 0.96428,-2.15378 2.15378,-2.15378l13.15507,0c1.1895,0 2.15378,0.96428 2.15378,2.15378l0,6.57436c0,0.84141 -0.48245,1.57 -1.1856,1.92445l0,14.27791c0,1.1895 -0.96428,2.15378 -2.15378,2.15378s-2.15378,-0.96428 -2.15378,-2.15378l0,-16.20236c0,-0.84141 0.48245,-1.57 1.1856,-1.92445l0,-2.49613l-8.84752,0l0,2.49613c0.70316,0.35445 1.1854,1.08304 1.1854,1.92425l0,13.12143c0,1.1895 -0.96428,2.15378 -2.15378,2.15378s-2.15378,-0.96428 -2.15378,-2.15378l0,-11.19698c-0.70316,-0.35445 -1.1854,-1.08304 -1.1854,-1.92425zm5.45296,-12.75898c0.96223,0.69967 2.30906,0.48716 3.00873,-0.47486c1.35524,-1.86333 2.32977,-1.66846 5.58854,-0.10051c2.35131,1.13145 5.06651,2.43849 8.0377,2.43828c1.71584,0 3.51743,-0.43609 5.38239,-1.5938c1.01063,-0.62726 1.3216,-1.95502 0.69434,-2.96565c-0.62726,-1.01084 -1.95522,-1.3216 -2.96565,-0.69434c-2.93693,1.82251 -5.44003,0.78213 -9.28094,-1.06622c-1.59298,-0.76633 -3.2401,-1.55893 -5.06015,-1.65677c-2.31254,-0.12451 -4.29074,0.92038 -5.88002,3.10513c-0.69947,0.96202 -0.48675,2.30906 0.47506,3.00873zm23.03517,81.67333c0,1.1895 -0.96428,2.15378 -2.15378,2.15378l-86.27257,0c-1.1895,0 -2.15378,-0.96428 -2.15378,-2.15378s0.96428,-2.15378 2.15378,-2.15378l3.23826,0l0,-35.63252c0,-1.1895 0.96428,-2.15378 2.15378,-2.15378l5.01051,0l1.33637,-11.74486l-1.55728,0c-1.1895,0 -2.15378,-0.96428 -2.15378,-2.15378s0.96428,-2.15378 2.15378,-2.15378l2.04732,0l0.80162,-7.0445l-7.58868,0c-0.1403,0.00349 -0.28389,-0.00738 -0.42645,-0.03282c-0.25045,-0.0441 -0.48614,-0.13169 -0.69885,-0.25435c-0.2802,-0.16102 -0.91402,-0.74336 -1.04551,-1.48877c-0.04308,-0.24492 -0.04574,-0.49947 -0.00041,-0.753c0.02482,-0.14112 0.06338,-0.27753 0.11425,-0.40758l4.09505,-11.25831c0.04554,-0.13518 0.12041,-0.2562 0.17435,-0.38583c0.38071,-0.91505 0.96407,-0.99197 1.48898,-1.04571c0.14153,-0.01456 0.28348,-0.03631 0.42809,-0.03302l5.24066,0l0.88961,-7.81986c0.12389,-1.08817 1.04469,-1.9103 2.14004,-1.9103l5.60905,0c1.09535,0 2.01614,0.82213 2.14004,1.9103l0.88961,7.81986l5.24004,0c0.14564,-0.00369 0.28984,0.00882 0.43137,0.03364c0.81823,0.14297 1.24776,0.5405 1.48406,1.04202c0.06051,0.12841 0.13046,0.25312 0.1764,0.38953l4.09464,11.25811c0.05025,0.12882 0.08861,0.26358 0.11323,0.40327c0.04615,0.25538 0.0361,0.51034 0.00021,0.75813c-0.072,0.4968 -0.40532,1.12079 -1.03894,1.48426c-0.21784,0.12492 -0.45824,0.21579 -0.71464,0.25968c-0.13928,0.0242 -0.27876,0.03487 -0.41619,0.03118l-7.58868,0l0.80141,7.0445l2.04712,0c1.1895,0 2.15378,0.96428 2.15378,2.15378s-0.96428,2.15378 -2.15378,2.15378l-1.55708,0l1.33616,11.74486l8.66578,0l0,-14.23258c0,-0.67588 0.31712,-1.31237 0.85679,-1.71954c0.53947,-0.40696 1.23853,-0.53721 1.88876,-0.35137l37.74425,10.78407c0.92469,0.2642 1.56221,1.1093 1.56221,2.07091l0,41.23481l4.66529,0c1.1895,-0.00041 2.15378,0.96387 2.15378,2.15337zm-69.27905,-78.6964l2.99765,0l-0.6168,-5.4226l-1.76384,0l-0.61701,5.4226zm-1.29165,11.35185l5.58075,0l-0.80141,-7.0445l-3.97772,0l-0.80162,7.0445zm-1.29145,11.35205l8.16385,0l-0.80141,-7.0445l-6.56102,0l-0.80141,7.0445zm-3.0438,-11.35205l0.80141,-7.0445l-3.2922,0l-2.56238,7.0445l5.05317,0zm1.79871,31.71203l-2.96278,0c-0.01908,0.00021 -0.03815,0.00021 -0.05723,0l-4.75329,0l0,33.47874l7.77329,0l0,-33.47874zm2.15378,-4.30756l9.08156,0l-1.33616,-11.74486l-9.14433,0l-1.33637,11.74486l2.7353,0zm10.00215,4.30756l-7.84837,0l0,33.47874l7.84837,0l0,-33.47874zm0.29681,-31.71203l5.05297,0l-2.56218,-7.0445l-3.2922,0l0.80141,7.0445zm11.78363,31.71203l-7.77288,0l0,33.47874l7.77288,0l0,-33.47874zm37.74425,-6.1315l-33.43669,-9.55334l0,49.16358l33.43669,0l0,-39.61024zm-26.4765,27.74149l19.5159,0c1.1895,0 2.15378,-0.96428 2.15378,-2.15378s-0.96428,-2.15378 -2.15378,-2.15378l-19.5159,0c-1.1895,0 -2.15378,0.96428 -2.15378,2.15378s0.96448,2.15378 2.15378,2.15378zm0,-10.78387l19.5159,0c1.1895,0 2.15378,-0.96428 2.15378,-2.15378s-0.96428,-2.15378 -2.15378,-2.15378l-19.5159,0c-1.1895,0 -2.15378,0.96428 -2.15378,2.15378s0.96448,2.15378 2.15378,2.15378z"/>
  </g>
 </g>
</svg>