<svg width="800" height="600" xmlns="http://www.w3.org/2000/svg">
 <!-- Created with Method Draw - http://github.com/duopixel/Method-Draw/ -->

 <g>
  <title>background</title>
  <rect fill="#fff" id="canvas_background" height="602" width="802" y="-1" x="-1"/>
 </g>
 <g>
  <title>Layer 1</title>
  <g id="svg_25">
   <g id="svg_5">
    <g id="svg_6">
     <path id="svg_7" d="m33464.24319,16241.7877l-42.517,-75.443c-5.263,-9.337 -17.775,-16.65 -28.487,-16.65l-27.32,0c-11.538,0 -20.927,9.386 -20.927,20.925l0,71.185c0,11.539 9.389,20.928 20.927,20.928l57.944,0c2.415,0 4.372,-1.957 4.372,-4.371c0,-2.416 -1.957,-4.371 -4.372,-4.371l-57.944,0c-6.718,0 -12.184,-5.467 -12.184,-12.186l0,-71.185c0,-6.716 5.466,-12.183 12.184,-12.183l27.32,0c7.583,0 17.145,5.587 20.871,12.2l42.516,75.441c4.1,7.279 7.562,20.484 7.562,28.836l0,56.289c0,6.719 -5.466,12.184 -12.185,12.184l-18.014,0c-2.414,0 -4.371,1.957 -4.371,4.371c0,2.416 1.957,4.371 4.371,4.371l18.014,0c11.539,0 20.928,-9.387 20.928,-20.926l0,-56.289c0,-9.927 -3.817,-24.478 -8.688,-33.126z"/>
     <path id="svg_8" d="m216991.9666,105322.398c-6.492,0 -12.831,1.785 -18.334,5.172c-2.057,1.264 -2.698,3.955 -1.434,6.012c1.268,2.055 3.962,2.697 6.013,1.434c4.124,-2.535 8.88,-3.875 13.755,-3.875c14.513,0 26.321,11.807 26.321,26.316c0,14.512 -11.809,26.316 -26.321,26.316c-14.512,0 -26.317,-11.805 -26.317,-26.316c0,-2.414 -1.957,-4.371 -4.372,-4.371l-19.04,0c-2.415,0 -4.371,1.957 -4.371,4.371c0,2.416 1.956,4.373 4.371,4.373l14.972,0c2.162,17.271 16.91,30.688 34.758,30.688c19.334,0 35.064,-15.727 35.064,-35.061c-0.001,-19.33 -15.731,-35.059 -35.065,-35.059z"/>
     <path id="svg_9" d="m216914.5136,105143.051c-13.391,0 -13.777,-14.796 -13.777,-16.484l0,-11.9c0,-11.688 -9.509,-21.194 -21.194,-21.194l-189.011,0c-11.685,-0.001 -21.194,9.506 -21.194,21.194l0,91.51c0,2.415 1.955,4.372 4.371,4.372l89.195,0c2.415,0 4.372,-1.957 4.372,-4.372l0,-32.605l69.756,52.319c0.451,0.336 0.72,0.717 0.724,1.018c0,0.297 -0.262,0.682 -0.705,1.025l-69.775,54.073l0,-34.488c0,-2.414 -1.957,-4.371 -4.372,-4.371l-89.195,0c-2.417,0 -4.371,1.957 -4.371,4.371l0,93.523c0,11.885 6.779,21.193 15.431,21.193l78.703,0c2.158,17.047 16.723,30.283 34.347,30.283c19.108,0 34.653,-15.547 34.653,-34.654s-15.547,-34.65 -34.653,-34.65c-6.416,0 -12.681,1.766 -18.121,5.109c-2.056,1.264 -2.698,3.957 -1.434,6.012c1.264,2.059 3.958,2.703 6.013,1.436c4.06,-2.494 8.743,-3.814 13.541,-3.814c14.289,0 25.91,11.621 25.91,25.908s-11.621,25.91 -25.91,25.91c-14.288,0 -25.91,-11.625 -25.91,-25.91c0,-2.414 -1.957,-4.371 -4.372,-4.371l-82.767,0c-3.156,0 -6.688,-5.326 -6.688,-12.451l0,-89.155l80.452,0l0,31.619c0,3.676 1.52,6.527 4.172,7.828c0.946,0.465 1.958,0.691 3.002,0.691c1.885,-0.002 3.869,-0.744 5.737,-2.191l70.964,-54.993c2.622,-2.034 4.114,-4.952 4.092,-8.007c-0.028,-3.055 -1.565,-5.948 -4.222,-7.94l-70.817,-53.115c-2.927,-2.194 -6.124,-2.696 -8.771,-1.375c-2.642,1.322 -4.158,4.181 -4.158,7.842l0,29.556l-80.451,0l0,-87.136c0,-6.867 5.585,-12.452 12.452,-12.452l189.01,0c6.867,0 12.452,5.585 12.452,12.452l0,11.901c0,12.149 7.047,25.227 22.52,25.227c3.656,0 7.729,5.113 7.729,12.452l0,176.795c0,6.867 -5.585,12.451 -12.451,12.451l-55.694,0c-2.414,0 -4.371,1.957 -4.371,4.371c0,2.416 1.957,4.371 4.371,4.371l55.694,0c11.688,0 21.194,-9.508 21.194,-21.193l0,-176.796c-0.002,-11.688 -7.391,-21.195 -16.473,-21.195z"/>
    </g>
   </g>
   <g id="svg_10"/>
   <g id="svg_11"/>
   <g id="svg_12"/>
   <g id="svg_13"/>
   <g id="svg_14"/>
   <g id="svg_15"/>
   <g id="svg_16"/>
   <g id="svg_17"/>
   <g id="svg_18"/>
   <g id="svg_19"/>
   <g id="svg_20"/>
   <g id="svg_21"/>
   <g id="svg_22"/>
   <g id="svg_23"/>
   <g id="svg_24"/>
  </g>
  <g id="svg_50">
   <g id="svg_30">
    <g id="svg_31">
     <path id="svg_32" d="m597.219,308.49251l-42.517,-75.443c-5.263,-9.337 -17.775,-16.65 -28.487,-16.65l-27.32,0c-11.538,0 -20.927,9.386 -20.927,20.925l0,71.185c0,11.539 9.389,20.928 20.927,20.928l57.944,0c2.415,0 4.372,-1.957 4.372,-4.371c0,-2.416 -1.957,-4.371 -4.372,-4.371l-57.944,0c-6.718,0 -12.184,-5.467 -12.184,-12.186l0,-71.185c0,-6.716 5.466,-12.183 12.184,-12.183l27.32,0c7.583,0 17.145,5.587 20.871,12.2l42.516,75.441c4.1,7.279 7.562,20.484 7.562,28.836l0,56.289c0,6.719 -5.466,12.184 -12.185,12.184l-18.014,0c-2.414,0 -4.371,1.957 -4.371,4.371c0,2.416 1.957,4.371 4.371,4.371l18.014,0c11.539,0 20.928,-9.387 20.928,-20.926l0,-56.289c0,-9.927 -3.817,-24.478 -8.688,-33.126z"/>
     <path id="svg_33" d="m516.722,379.40251c-6.492,0 -12.831,1.785 -18.334,5.172c-2.057,1.264 -2.698,3.955 -1.434,6.012c1.268,2.055 3.962,2.697 6.013,1.434c4.124,-2.535 8.88,-3.875 13.755,-3.875c14.513,0 26.321,11.807 26.321,26.316c0,14.512 -11.809,26.316 -26.321,26.316c-14.512,0 -26.317,-11.805 -26.317,-26.316c0,-2.414 -1.957,-4.371 -4.372,-4.371l-19.04,0c-2.415,0 -4.371,1.957 -4.371,4.371c0,2.416 1.956,4.373 4.371,4.373l14.972,0c2.162,17.271 16.91,30.688 34.758,30.688c19.334,0 35.064,-15.727 35.064,-35.061c-0.001,-19.33 -15.731,-35.059 -35.065,-35.059z"/>
     <path id="svg_34" d="m439.269,200.05551c-13.391,0 -13.777,-14.796 -13.777,-16.484l0,-11.9c0,-11.688 -9.509,-21.194 -21.194,-21.194l-189.011,0c-11.685,-0.001 -21.194,9.506 -21.194,21.194l0,91.51c0,2.415 1.955,4.372 4.371,4.372l89.195,0c2.415,0 4.372,-1.957 4.372,-4.372l0,-32.605l69.756,52.319c0.451,0.336 0.72,0.717 0.724,1.018c0,0.297 -0.262,0.682 -0.705,1.025l-69.775,54.073l0,-34.488c0,-2.414 -1.957,-4.371 -4.372,-4.371l-89.195,0c-2.417,0 -4.371,1.957 -4.371,4.371l0,93.523c0,11.885 6.779,21.193 15.431,21.193l78.703,0c2.158,17.047 16.723,30.283 34.347,30.283c19.108,0 34.653,-15.547 34.653,-34.654s-15.547,-34.65 -34.653,-34.65c-6.416,0 -12.681,1.766 -18.121,5.109c-2.056,1.264 -2.698,3.957 -1.434,6.012c1.264,2.059 3.958,2.703 6.013,1.436c4.06,-2.494 8.743,-3.814 13.541,-3.814c14.289,0 25.91,11.621 25.91,25.908s-11.621,25.91 -25.91,25.91c-14.288,0 -25.91,-11.625 -25.91,-25.91c0,-2.414 -1.957,-4.371 -4.372,-4.371l-82.767,0c-3.156,0 -6.688,-5.326 -6.688,-12.451l0,-89.155l80.452,0l0,31.619c0,3.676 1.52,6.527 4.172,7.828c0.946,0.465 1.958,0.691 3.002,0.691c1.885,-0.002 3.869,-0.744 5.737,-2.191l70.964,-54.993c2.622,-2.034 4.114,-4.952 4.092,-8.007c-0.028,-3.055 -1.565,-5.948 -4.222,-7.94l-70.817,-53.115c-2.927,-2.194 -6.124,-2.696 -8.771,-1.375c-2.642,1.322 -4.158,4.181 -4.158,7.842l0,29.556l-80.451,0l0,-87.136c0,-6.867 5.585,-12.452 12.452,-12.452l189.01,0c6.867,0 12.452,5.585 12.452,12.452l0,11.901c0,12.149 7.047,25.227 22.52,25.227c3.656,0 7.729,5.113 7.729,12.452l0,176.795c0,6.867 -5.585,12.451 -12.451,12.451l-55.694,0c-2.414,0 -4.371,1.957 -4.371,4.371c0,2.416 1.957,4.371 4.371,4.371l55.694,0c11.688,0 21.194,-9.508 21.194,-21.193l0,-176.796c-0.002,-11.688 -7.391,-21.195 -16.473,-21.195z"/>
    </g>
   </g>
   <g id="svg_35"/>
   <g id="svg_36"/>
   <g id="svg_37"/>
   <g id="svg_38"/>
   <g id="svg_39"/>
   <g id="svg_40"/>
   <g id="svg_41"/>
   <g id="svg_42"/>
   <g id="svg_43"/>
   <g id="svg_44"/>
   <g id="svg_45"/>
   <g id="svg_46"/>
   <g id="svg_47"/>
   <g id="svg_48"/>
   <g id="svg_49"/>
  </g>
 </g>
</svg>