<svg width="800" height="600" xmlns="http://www.w3.org/2000/svg">
 <!-- Created with Method Draw - http://github.com/duopixel/Method-Draw/ -->

 <g>
  <title>background</title>
  <rect fill="#fff" id="canvas_background" height="602" width="802" y="-1" x="-1"/>
 </g>
 <g>
  <title>Layer 1</title>
  <g id="svg_17">
   <g transform="matrix(0.18659414179647005,0,0,0.18659414179647005,0,0) " id="svg_4">
    <g id="svg_5">
     <path id="svg_6" d="m9355048.34008,6733091.20482c-39.425,0 -71.5,32.075 -71.5,71.5s32.075,71.5 71.5,71.5s71.5,-32.075 71.5,-71.5s-32.075,-71.5 -71.5,-71.5zm0,128c-31.154,0 -56.5,-25.346 -56.5,-56.5s25.346,-56.5 56.5,-56.5s56.5,25.346 56.5,56.5s-25.346,56.5 -56.5,56.5z"/>
     <path id="svg_7" d="m9355048.34008,6733251.20482c-39.425,0 -71.5,32.075 -71.5,71.5s32.075,71.5 71.5,71.5s71.5,-32.075 71.5,-71.5s-32.075,-71.5 -71.5,-71.5zm0,128c-31.154,0 -56.5,-25.346 -56.5,-56.5s25.346,-56.5 56.5,-56.5s56.5,25.346 56.5,56.5s-25.346,56.5 -56.5,56.5z"/>
     <path id="svg_8" d="m61308847.71913,44126306.51988c-39.425,0 -71.5,32.075 -71.5,71.5s32.075,71.5 71.5,71.5s71.5,-32.075 71.5,-71.5s-32.075,-71.5 -71.5,-71.5zm0,128c-31.154,0 -56.5,-25.346 -56.5,-56.5s25.346,-56.5 56.5,-56.5s56.5,25.346 56.5,56.5s-25.346,56.5 -56.5,56.5z"/>
     <path id="svg_9" d="m61308866.41513,44126036.71688l-26.696,26.697l-10.696,-10.697c-2.93,-2.929 -7.678,-2.929 -10.607,0s-2.929,7.678 0,10.606l16,16c1.464,1.465 3.384,2.197 5.303,2.197s3.839,-0.732 5.304,-2.197l32,-32c2.929,-2.929 2.929,-7.678 0,-10.606c-2.93,-2.929 -7.678,-2.929 -10.608,0z"/>
     <path id="svg_10" d="m259935159.02602,187084214.32461l-26.696,26.697l-10.696,-10.697c-2.93,-2.929 -7.678,-2.929 -10.607,0s-2.929,7.678 0,10.606l16,16c1.464,1.465 3.384,2.197 5.303,2.197s3.839,-0.732 5.304,-2.197l32,-32c2.929,-2.929 2.929,-7.678 0,-10.606c-2.93,-2.929 -7.678,-2.929 -10.608,0z"/>
     <path id="svg_11" d="m1593493961.18035,1146891081.74519l144,0c4.143,0 7.5,-3.358 7.5,-7.5s-3.357,-7.5 -7.5,-7.5l-144,0c-4.143,0 -7.5,3.358 -7.5,7.5s3.357,7.5 7.5,7.5z"/>
     <path id="svg_12" d="m1593493961.18035,1146891129.74519l280,0c4.143,0 7.5,-3.358 7.5,-7.5s-3.357,-7.5 -7.5,-7.5l-280,0c-4.143,0 -7.5,3.358 -7.5,7.5s3.357,7.5 7.5,7.5z"/>
     <path id="svg_13" d="m1593493961.18035,1146891241.74519l144,0c4.143,0 7.5,-3.358 7.5,-7.5s-3.357,-7.5 -7.5,-7.5l-144,0c-4.143,0 -7.5,3.358 -7.5,7.5s3.357,7.5 7.5,7.5z"/>
     <path id="svg_14" d="m1593494241.18035,1146891274.74519l-280,0c-4.143,0 -7.5,3.358 -7.5,7.5s3.357,7.5 7.5,7.5l280,0c4.143,0 7.5,-3.358 7.5,-7.5s-3.357,-7.5 -7.5,-7.5z"/>
     <path id="svg_15" d="m1593493961.18035,1146891401.74519l144,0c4.143,0 7.5,-3.358 7.5,-7.5s-3.357,-7.5 -7.5,-7.5l-144,0c-4.143,0 -7.5,3.358 -7.5,7.5s3.357,7.5 7.5,7.5z"/>
     <path id="svg_16" d="m1593494241.18035,1146891434.74519l-280,0c-4.143,0 -7.5,3.358 -7.5,7.5s3.357,7.5 7.5,7.5l280,0c4.143,0 7.5,-3.358 7.5,-7.5s-3.357,-7.5 -7.5,-7.5z"/>
    </g>
   </g>
  </g>
  <g id="svg_34">
   <g id="svg_21">
    <g id="svg_22">
     <path id="svg_23" d="m4074126704711.5,1656247287808c-39.4248,0 -71.5,32.07495 -71.5,71.5s32.0752,71.5 71.5,71.5s71.5,-32.07495 71.5,-71.5s-32.0752,-71.5 -71.5,-71.5zm0,128c-31.15381,0 -56.5,-25.34595 -56.5,-56.5s25.34619,-56.5 56.5,-56.5s56.5,25.34595 56.5,56.5s-25.34619,56.5 -56.5,56.5z"/>
     <path id="svg_24" d="m4074126704711.5,1656247287968c-39.4248,0 -71.5,32.07495 -71.5,71.5s32.0752,71.5 71.5,71.5s71.5,-32.07495 71.5,-71.5s-32.0752,-71.5 -71.5,-71.5zm0,128c-31.15381,0 -56.5,-25.34595 -56.5,-56.5s25.34619,-56.5 56.5,-56.5s56.5,25.34595 56.5,56.5s-25.34619,56.5 -56.5,56.5z"/>
     <path id="svg_25" d="m4074126704711.5,1656247288128c-39.4248,0 -71.5,32.07495 -71.5,71.5s32.0752,71.5 71.5,71.5s71.5,-32.07495 71.5,-71.5s-32.0752,-71.5 -71.5,-71.5zm0,128c-31.15381,0 -56.5,-25.34595 -56.5,-56.5s25.34619,-56.5 56.5,-56.5s56.5,25.34595 56.5,56.5s-25.34619,56.5 -56.5,56.5z"/>
     <path id="svg_26" d="m4074126704730.196,1656247287858.197l-26.6958,26.69702l-10.6958,-10.69702c-2.93018,-2.92896 -7.67822,-2.92896 -10.60742,0s-2.92871,7.67798 0,10.60596l16,16c1.46436,1.46509 3.38428,2.19702 5.30322,2.19702s3.83887,-0.73193 5.3042,-2.19702l32,-32c2.92871,-2.92896 2.92871,-7.67798 0,-10.60596c-2.93018,-2.92896 -7.67822,-2.92896 -10.6084,0z"/>
     <path id="svg_27" d="m4074126704730.196,1656247288018.197l-26.6958,26.69702l-10.6958,-10.69702c-2.93018,-2.92896 -7.67822,-2.92896 -10.60742,0s-2.92871,7.67798 0,10.60596l16,16c1.46436,1.46509 3.38428,2.19702 5.30322,2.19702s3.83887,-0.73193 5.3042,-2.19702l32,-32c2.92871,-2.92896 2.92871,-7.67798 0,-10.60596c-2.93018,-2.92896 -7.67822,-2.92896 -10.6084,0z"/>
     <path id="svg_28" d="m4074126704815.5,1656247287863l144,0c4.14307,0 7.5,-3.35791 7.5,-7.5s-3.35693,-7.5 -7.5,-7.5l-144,0c-4.14307,0 -7.5,3.35791 -7.5,7.5s3.35693,7.5 7.5,7.5z"/>
     <path id="svg_29" d="m4074126704815.5,1656247287911l280,0c4.14307,0 7.5,-3.35791 7.5,-7.5s-3.35693,-7.5 -7.5,-7.5l-280,0c-4.14307,0 -7.5,3.35791 -7.5,7.5s3.35693,7.5 7.5,7.5z"/>
     <path id="svg_30" d="m4074126704815.5,1656247288023l144,0c4.14307,0 7.5,-3.35791 7.5,-7.5s-3.35693,-7.5 -7.5,-7.5l-144,0c-4.14307,0 -7.5,3.35791 -7.5,7.5s3.35693,7.5 7.5,7.5z"/>
     <path id="svg_31" d="m4074126705095.5,1656247288056l-280,0c-4.14307,0 -7.5,3.35791 -7.5,7.5s3.35693,7.5 7.5,7.5l280,0c4.14307,0 7.5,-3.35791 7.5,-7.5s-3.35693,-7.5 -7.5,-7.5z"/>
     <path id="svg_32" d="m4074126704815.5,1656247288183l144,0c4.14307,0 7.5,-3.35791 7.5,-7.5s-3.35693,-7.5 -7.5,-7.5l-144,0c-4.14307,0 -7.5,3.35791 -7.5,7.5s3.35693,7.5 7.5,7.5z"/>
     <path id="svg_33" d="m4074126705095.5,1656247288216l-280,0c-4.14307,0 -7.5,3.35791 -7.5,7.5s3.35693,7.5 7.5,7.5l280,0c4.14307,0 7.5,-3.35791 7.5,-7.5s-3.35693,-7.5 -7.5,-7.5z"/>
    </g>
   </g>
  </g>
  <g id="svg_51">
   <g id="svg_38">
    <g id="svg_39">
     <path id="svg_40" d="m240,68.5c-39.425,0 -71.5,32.075 -71.5,71.5s32.075,71.5 71.5,71.5s71.5,-32.075 71.5,-71.5s-32.075,-71.5 -71.5,-71.5zm0,128c-31.154,0 -56.5,-25.346 -56.5,-56.5s25.346,-56.5 56.5,-56.5s56.5,25.346 56.5,56.5s-25.346,56.5 -56.5,56.5z"/>
     <path id="svg_41" d="m240,228.5c-39.425,0 -71.5,32.075 -71.5,71.5s32.075,71.5 71.5,71.5s71.5,-32.075 71.5,-71.5s-32.075,-71.5 -71.5,-71.5zm0,128c-31.154,0 -56.5,-25.346 -56.5,-56.5s25.346,-56.5 56.5,-56.5s56.5,25.346 56.5,56.5s-25.346,56.5 -56.5,56.5z"/>
     <path id="svg_42" d="m240,388.5c-39.425,0 -71.5,32.075 -71.5,71.5s32.075,71.5 71.5,71.5s71.5,-32.075 71.5,-71.5s-32.075,-71.5 -71.5,-71.5zm0,128c-31.154,0 -56.5,-25.346 -56.5,-56.5s25.346,-56.5 56.5,-56.5s56.5,25.346 56.5,56.5s-25.346,56.5 -56.5,56.5z"/>
     <path id="svg_43" d="m258.696,118.697l-26.696,26.697l-10.696,-10.697c-2.93,-2.929 -7.678,-2.929 -10.607,0s-2.929,7.678 0,10.606l16,16c1.464,1.465 3.384,2.197 5.303,2.197s3.839,-0.732 5.304,-2.197l32,-32c2.929,-2.929 2.929,-7.678 0,-10.606c-2.93,-2.929 -7.678,-2.929 -10.608,0z"/>
     <path id="svg_44" d="m258.696,278.697l-26.696,26.697l-10.696,-10.697c-2.93,-2.929 -7.678,-2.929 -10.607,0s-2.929,7.678 0,10.606l16,16c1.464,1.465 3.384,2.197 5.303,2.197s3.839,-0.732 5.304,-2.197l32,-32c2.929,-2.929 2.929,-7.678 0,-10.606c-2.93,-2.929 -7.678,-2.929 -10.608,0z"/>
     <path id="svg_45" d="m344,123.5l144,0c4.143,0 7.5,-3.358 7.5,-7.5s-3.357,-7.5 -7.5,-7.5l-144,0c-4.143,0 -7.5,3.358 -7.5,7.5s3.357,7.5 7.5,7.5z"/>
     <path id="svg_46" d="m344,171.5l280,0c4.143,0 7.5,-3.358 7.5,-7.5s-3.357,-7.5 -7.5,-7.5l-280,0c-4.143,0 -7.5,3.358 -7.5,7.5s3.357,7.5 7.5,7.5z"/>
     <path id="svg_47" d="m344,283.5l144,0c4.143,0 7.5,-3.358 7.5,-7.5s-3.357,-7.5 -7.5,-7.5l-144,0c-4.143,0 -7.5,3.358 -7.5,7.5s3.357,7.5 7.5,7.5z"/>
     <path id="svg_48" d="m624,316.5l-280,0c-4.143,0 -7.5,3.358 -7.5,7.5s3.357,7.5 7.5,7.5l280,0c4.143,0 7.5,-3.358 7.5,-7.5s-3.357,-7.5 -7.5,-7.5z"/>
     <path id="svg_49" d="m344,443.5l144,0c4.143,0 7.5,-3.358 7.5,-7.5s-3.357,-7.5 -7.5,-7.5l-144,0c-4.143,0 -7.5,3.358 -7.5,7.5s3.357,7.5 7.5,7.5z"/>
     <path id="svg_50" d="m624,476.5l-280,0c-4.143,0 -7.5,3.358 -7.5,7.5s3.357,7.5 7.5,7.5l280,0c4.143,0 7.5,-3.358 7.5,-7.5s-3.357,-7.5 -7.5,-7.5z"/>
    </g>
   </g>
  </g>
 </g>
</svg>